<svg width="64" height="64" viewBox="0 0 64 64" fill="none" xmlns="http://www.w3.org/2000/svg">
<g clip-path="url(#clip0_121_20)">
<mask id="mask0_121_20" style="mask-type:luminance" maskUnits="userSpaceOnUse" x="15" y="0" width="37" height="64">
<path d="M52 0H15V64H52V0Z" fill="white"/>
</mask>
<g mask="url(#mask0_121_20)">
<path fill-rule="evenodd" clip-rule="evenodd" d="M33.6889 10.0015C31.7672 9.73535 20.5445 18.46 33.6889 27.366C46.8334 18.46 35.6107 9.73535 33.6889 10.0015Z" fill="#AA1B20"/>
<path d="M33.2852 15.1181C33.2693 15.0711 33.1697 14.7968 32.887 14.7162C32.6707 14.6543 32.5433 14.4258 32.6043 14.2067V14.2H32.6057C32.6548 14.0333 32.7384 13.5211 32.8127 12.6311L32.9574 4.92287V4.92018C32.96 4.80457 32.9627 4.654 32.964 4.49537C32.9653 4.31927 32.9667 4.13107 32.9667 3.95899H32.9176C32.9176 3.95899 31.674 3.96706 31.39 4.25609C31.2307 4.4174 30.9719 4.4174 30.8113 4.25609C30.7662 4.21038 30.7343 4.15661 30.7144 4.10015C30.6653 3.98588 30.6202 3.88775 30.5645 3.82053L30.5512 3.8044C30.5021 3.75063 30.4291 3.70492 30.3163 3.66325C30.1053 3.58662 29.9951 3.35002 30.0707 3.13628C30.1132 3.01529 30.2061 2.92791 30.3163 2.88758C30.441 2.84187 30.5154 2.79079 30.5658 2.73029C30.6255 2.6577 30.6733 2.55016 30.7264 2.42513C30.814 2.21542 31.0542 2.11729 31.2612 2.20736C31.3103 2.22887 31.3541 2.25844 31.39 2.29474C31.674 2.58242 32.9136 2.59048 32.9176 2.59048H32.9547L32.9507 2.42379C32.9507 2.40363 32.9521 2.38481 32.9547 2.36598C32.956 2.28129 32.9454 1.89144 32.615 1.41152C32.4862 1.22332 32.5327 0.966557 32.7171 0.836158C32.7636 0.803895 32.814 0.782386 32.8658 0.771631C32.9441 0.750122 33.0184 0.719203 33.0821 0.666775C33.1578 0.604937 33.2321 0.506802 33.3011 0.352206C33.394 0.145182 33.6369 0.0537687 33.8413 0.14787C33.9342 0.190888 34.0032 0.264826 34.043 0.352206C34.1505 0.590149 34.2726 0.651987 34.4412 0.736679L34.465 0.748778L34.5845 0.809272C34.7836 0.915472 34.8606 1.16551 34.7557 1.36716C34.7477 1.38195 34.7398 1.39674 34.7292 1.41018C34.3562 1.95463 34.3907 2.38212 34.3907 2.38212C34.3907 2.39556 34.3921 2.409 34.3921 2.42245L34.3881 2.58914H34.4544C34.4544 2.58914 35.698 2.58107 35.982 2.29205C36.1413 2.13073 36.4001 2.13073 36.5607 2.29205C36.6058 2.33775 36.639 2.39153 36.6576 2.44933C36.7067 2.56629 36.7531 2.66308 36.8049 2.72761C36.8553 2.7881 36.9296 2.84053 37.0531 2.88623C37.2641 2.96286 37.3742 3.19946 37.2986 3.4132C37.2561 3.53419 37.1632 3.62157 37.0531 3.6619C36.9296 3.70626 36.8553 3.75869 36.8049 3.81919L36.7889 3.83666C36.7385 3.90522 36.6934 4.00605 36.6443 4.123C36.5567 4.33271 36.3165 4.43085 36.1094 4.34078C36.0603 4.31927 36.0165 4.2897 35.9807 4.2534C35.6953 3.96572 34.4558 3.95765 34.4531 3.95765H34.3761C34.3761 4.12838 34.3761 4.31658 34.3788 4.49134L34.4093 5.85313L34.4292 6.39086V6.39758C34.4531 6.94337 34.4823 12.0329 34.5155 12.4483C34.5938 13.4525 34.6854 14.0212 34.7384 14.2C34.7955 14.3949 34.7053 14.5979 34.5314 14.6866C34.5102 14.6974 34.4876 14.7068 34.4637 14.7135L34.4438 14.7189C34.1452 14.813 34.0563 15.1235 34.0563 15.1235C33.9859 15.3399 33.755 15.4569 33.5427 15.3856C33.4126 15.3426 33.3197 15.2391 33.2825 15.1168" fill="#D1AA66"/>
<path fill-rule="evenodd" clip-rule="evenodd" d="M33.6889 32.8605C31.7672 33.1119 20.5445 24.8632 33.6889 16.4424C46.8334 24.8618 35.6107 33.1105 33.6889 32.8605Z" fill="#FF0000"/>
<path fill-rule="evenodd" clip-rule="evenodd" d="M27.8929 9.62416C26.6255 9.74784 22.6532 20.9701 33.6887 27.3677C38.7798 15.566 28.9839 8.95738 27.8929 9.62416Z" fill="#FF0000"/>
<path fill-rule="evenodd" clip-rule="evenodd" d="M39.49 9.62416C40.7575 9.74784 44.7298 20.9701 33.6942 27.3677C28.6032 15.566 38.3991 8.95738 39.49 9.62416Z" fill="#F26A6F"/>
<path fill-rule="evenodd" clip-rule="evenodd" d="M33.9756 32.8669C33.9756 32.8669 31.8521 13.693 44.8718 12.7573C42.8399 17.2473 43.0244 20.7076 42.9328 24.6357C42.8399 28.5637 40.9938 33.0537 33.9756 32.8669Z" fill="#AA1B20"/>
<path fill-rule="evenodd" clip-rule="evenodd" d="M33.402 32.8669C33.402 32.8669 35.5255 13.693 22.5059 12.7573C24.5378 17.2473 24.3533 20.7076 24.4449 24.6357C24.5378 28.5637 26.3839 33.0537 33.402 32.8669Z" fill="#AA1B20"/>
<path fill-rule="evenodd" clip-rule="evenodd" d="M26.9443 59.3325C26.9443 59.3325 33.5139 50.7867 33.2166 43.4467C32.9193 36.1068 21.6873 28.5733 20.3734 20.6055C19.0595 12.6378 22.1638 8.7124 22.1638 8.7124C22.1638 8.7124 9.94574 20.7265 17.0661 36.8784C20.9706 44.9376 28.5754 52.986 26.9443 59.3311" fill="#BBBDBF"/>
<path fill-rule="evenodd" clip-rule="evenodd" d="M31.88 42.2585C31.88 42.2585 28.9669 36.4322 31.0598 31.8562C32.61 28.2091 35.4555 28.939 35.4555 28.939C35.4555 28.939 33.8629 30.8695 34.7189 33.4815C35.5749 36.0948 40.4364 40.6682 38.1935 46.1086C35.9518 51.5477 34.3327 47.7513 34.3327 47.7513L31.88 42.2571V42.2585Z" fill="#BBBDBF"/>
<path fill-rule="evenodd" clip-rule="evenodd" d="M33.9915 64C33.9915 64 28.0563 53.8128 29.3915 45.9042C30.7266 37.9956 43.9347 31.4273 46.4577 22.9823C48.9807 14.5374 46.1604 9.8457 46.1604 9.8457C46.1604 9.8457 57.7348 24.5901 47.7929 41.0781C42.4509 49.2542 33.1009 56.8953 33.9915 64Z" fill="#D1AA66"/>
<path fill-rule="evenodd" clip-rule="evenodd" d="M46.1936 9.89014C46.2533 9.96945 46.3953 10.159 46.5917 10.4453C48.3476 13.0815 54.3345 24.3079 42.6858 41.2059C37.2776 49.0325 34.2171 55.0819 34.3949 60.2091C34.0087 61.4539 33.8468 62.6826 33.9822 63.8952C31.8919 59.6095 31.8693 52.8033 39.7103 42.0434C54.5442 21.6865 46.7603 10.643 46.1936 9.89014Z" fill="#E1C385"/>
</g>
</g>
<defs>
<clipPath id="clip0_121_20">
<rect width="37" height="64" fill="white" transform="translate(15)"/>
</clipPath>
</defs>
</svg>
