<svg width="64" height="85" viewBox="0 0 64 85" fill="none" xmlns="http://www.w3.org/2000/svg">
<g clip-path="url(#clip0_22_778)">
<path fill-rule="evenodd" clip-rule="evenodd" d="M32 21.2535C29.7204 20.9361 16.4248 31.2392 32 41.7533C47.5753 31.2392 34.2781 20.9393 32 21.2535Z" fill="#AA1B20"/>
<path d="M31.5218 27.2938C31.4859 27.1825 31.4245 27.0813 31.3425 26.9986C31.2604 26.9158 31.1601 26.8538 31.0498 26.8177C30.9264 26.7825 30.8219 26.6995 30.7591 26.5868C30.6963 26.474 30.6803 26.3408 30.7147 26.2162V26.2083C30.8427 25.598 30.9253 24.9789 30.9617 24.3562L31.1332 15.2561C31.1332 15.1197 31.1332 14.9387 31.141 14.7546C31.1489 14.5705 31.141 14.323 31.141 14.1198H31.0828C31.0828 14.1198 29.6103 14.1293 29.272 14.469C29.2271 14.5147 29.1737 14.5509 29.1148 14.5757C29.056 14.6004 28.9928 14.6131 28.929 14.6131C28.8653 14.6131 28.8021 14.6004 28.7433 14.5757C28.6844 14.5509 28.631 14.5147 28.5861 14.469C28.5348 14.4172 28.496 14.3542 28.4728 14.2849C28.4279 14.1676 28.3681 14.0566 28.295 13.9548L28.2793 13.9357C28.2007 13.859 28.1053 13.8019 28.0008 13.7691C27.9071 13.7352 27.8261 13.673 27.7688 13.5909C27.7115 13.5088 27.6808 13.4108 27.6808 13.3104C27.6808 13.21 27.7115 13.1121 27.7688 13.03C27.8261 12.9479 27.9071 12.8857 28.0008 12.8518C28.1136 12.8183 28.2152 12.7547 28.295 12.6677C28.3742 12.5576 28.4377 12.4368 28.4838 12.309C28.5344 12.1915 28.6286 12.0987 28.7462 12.0503C28.8638 12.002 28.9955 12.002 29.1131 12.0503C29.1715 12.0752 29.2248 12.1107 29.2704 12.1551C29.6087 12.4963 31.0781 12.5058 31.0813 12.5058H31.1253V12.309C31.1237 12.2863 31.1237 12.2635 31.1253 12.2408C31.1101 11.8324 30.97 11.4388 30.7241 11.114C30.6878 11.0614 30.6621 11.0021 30.6485 10.9394C30.6349 10.8768 30.6337 10.8121 30.6449 10.749C30.6562 10.6859 30.6797 10.6256 30.714 10.5717C30.7484 10.5178 30.793 10.4712 30.8453 10.4347C30.8972 10.3964 30.9568 10.3698 31.0199 10.357C31.113 10.335 31.2004 10.2933 31.2763 10.2348C31.3901 10.1325 31.4794 10.0055 31.5375 9.8634C31.5761 9.77867 31.6379 9.70688 31.7157 9.65655C31.7935 9.60622 31.884 9.57947 31.9764 9.57947C32.0689 9.57947 32.1594 9.60622 32.2372 9.65655C32.315 9.70688 32.3768 9.77867 32.4154 9.8634C32.459 9.96765 32.5234 10.0617 32.6046 10.1398C32.6858 10.2179 32.782 10.2783 32.8874 10.3173L32.9141 10.3316L33.0557 10.403C33.169 10.4634 33.2539 10.5666 33.292 10.69C33.33 10.8135 33.318 10.9471 33.2586 11.0616C33.25 11.0798 33.24 11.0973 33.2288 11.114C32.7867 11.7488 32.8276 12.2598 32.8276 12.2614C32.8276 12.263 32.8276 12.2931 32.8276 12.309V12.5058H32.9062C32.9062 12.5058 34.3804 12.4963 34.717 12.1551C34.7751 12.0964 34.847 12.0537 34.926 12.0307C35.0049 12.0078 35.0884 12.0056 35.1684 12.0241C35.2485 12.0427 35.3226 12.0815 35.3837 12.1369C35.4448 12.1923 35.491 12.2624 35.5178 12.3408C35.561 12.4577 35.6198 12.5683 35.6925 12.6693C35.7716 12.7566 35.8727 12.8208 35.9851 12.855C36.0788 12.8888 36.1598 12.9511 36.2171 13.0332C36.2744 13.1153 36.3051 13.2132 36.3051 13.3136C36.3051 13.414 36.2744 13.512 36.2171 13.5941C36.1598 13.6762 36.0788 13.7384 35.9851 13.7723C35.8727 13.8064 35.7716 13.8706 35.6925 13.9579L35.6736 13.9802C35.6034 14.0856 35.5459 14.1991 35.5021 14.3182C35.4717 14.3921 35.4238 14.4572 35.3625 14.508C35.3012 14.5587 35.2285 14.5935 35.1507 14.6092C35.073 14.6249 34.9926 14.621 34.9167 14.5979C34.8408 14.5749 34.7717 14.5333 34.7155 14.4769C34.3788 14.1373 32.9078 14.1278 32.9047 14.1278H32.8134C32.8134 14.3293 32.8134 14.5515 32.8134 14.7626L32.8496 16.3702L32.8732 17.0051C32.9015 17.6494 32.9361 23.6595 32.9755 24.1467C33.0683 25.3322 33.1768 26.0051 33.2382 26.2099C33.2708 26.3193 33.2642 26.4367 33.2196 26.5417C33.175 26.6468 33.0953 26.7326 32.9943 26.7844C32.9679 26.7974 32.9405 26.8085 32.9125 26.8177H32.8905C32.7828 26.8561 32.6853 26.919 32.6056 27.0016C32.5259 27.0841 32.4662 27.1841 32.4311 27.2938C32.3988 27.3914 32.3367 27.4762 32.2536 27.536C32.1706 27.5958 32.0709 27.6275 31.9689 27.6267C31.8668 27.6258 31.7677 27.5923 31.6857 27.5311C31.6037 27.4699 31.543 27.384 31.5123 27.2859" fill="#D1AA66"/>
<path fill-rule="evenodd" clip-rule="evenodd" d="M32 48.2395C29.7204 48.5347 16.4248 38.7967 32 28.8571C47.5753 38.7967 34.2781 48.5363 32 48.2395Z" fill="#FF0000"/>
<path fill-rule="evenodd" clip-rule="evenodd" d="M25.1296 20.806C23.6271 20.952 18.9184 34.199 32 41.7549C38.035 27.8207 26.4228 20.0205 25.1296 20.806Z" fill="#FF0000"/>
<path fill-rule="evenodd" clip-rule="evenodd" d="M38.8767 20.806C40.3791 20.952 45.0894 34.199 32.0078 41.7549C25.9728 27.8207 37.5834 20.0205 38.8767 20.806Z" fill="#F26A6F"/>
<path fill-rule="evenodd" clip-rule="evenodd" d="M32.3398 48.2459C32.3398 48.2459 29.8226 25.61 45.2562 24.5054C42.8476 29.8061 43.0662 33.8912 42.9561 38.5285C42.846 43.1658 40.6576 48.4665 32.3398 48.2459Z" fill="#AA1B20"/>
<path fill-rule="evenodd" clip-rule="evenodd" d="M31.6586 48.2459C31.6586 48.2459 34.1758 25.61 18.7438 24.5054C21.1509 29.8061 20.9322 33.8912 21.0423 38.5285C21.1524 43.1658 23.3408 48.4665 31.6586 48.2459Z" fill="#AA1B20"/>
<path fill-rule="evenodd" clip-rule="evenodd" d="M24.0047 79.4851C24.0047 79.4851 31.7923 69.3963 31.4399 60.7311C31.0875 52.0659 17.7715 43.1785 16.2155 33.7785C14.6596 24.3785 18.3378 19.738 18.3378 19.738C18.3378 19.738 3.85445 33.915 12.295 52.9816C16.9235 62.5038 25.9382 71.9974 24.0047 79.4851Z" fill="#BBBDBF"/>
<path fill-rule="evenodd" clip-rule="evenodd" d="M29.8556 59.3297C29.8556 59.3297 26.4023 52.4515 28.8834 47.0477C30.7209 42.7468 34.094 43.6181 34.094 43.6181C33.5306 44.3747 33.1569 45.2575 33.0046 46.1912C32.8523 47.1249 32.9259 48.0819 33.2192 48.9807C34.234 52.0659 39.9968 57.465 37.3396 63.8877C34.6824 70.3104 32.763 65.8271 32.763 65.8271L29.8556 59.3297Z" fill="#BBBDBF"/>
<path fill-rule="evenodd" clip-rule="evenodd" d="M32.3587 85.0016C32.3587 85.0016 25.3231 72.9782 26.9058 63.6385C28.4885 54.2988 44.1455 46.5477 47.1347 36.578C50.1239 26.6082 46.7838 21.0695 46.7838 21.0695C46.7838 21.0695 60.5042 38.4761 48.7189 57.941C42.3866 67.5934 31.303 76.6141 32.3571 85.0016" fill="#D1AA66"/>
<path fill-rule="evenodd" clip-rule="evenodd" d="M46.8232 21.1202C46.894 21.2139 47.0608 21.4376 47.2952 21.7757C49.3766 24.891 56.4735 38.1428 42.6635 58.0902C36.2525 67.3299 32.6262 74.4716 32.8354 80.5245C32.3702 81.9258 32.2035 83.4103 32.3461 84.881C29.8682 79.8215 29.8415 71.7863 39.1363 59.0837C56.7205 35.0481 47.4934 22.009 46.8232 21.1202Z" fill="#E1C385"/>
<path d="M5.65744 26.3194C6.06124 26.457 6.3696 26.5628 6.58252 26.6368C6.7949 26.7146 6.96167 26.7812 7.08438 26.8384C7.27475 26.9272 7.36442 27.0288 7.35026 27.1431C7.34123 27.2278 7.3233 27.3113 7.29677 27.3922C7.27317 27.4621 7.27947 27.5033 7.31408 27.516C7.34869 27.5287 7.39431 27.4938 7.4242 27.4049C7.4541 27.3161 7.50916 27.1351 7.58153 26.8733L7.67907 26.5559L7.7892 26.2496C7.89408 25.9502 7.98009 25.7073 8.04721 25.5211C8.07553 25.437 8.06767 25.3878 8.02361 25.3719C7.97956 25.3561 7.95911 25.3894 7.93551 25.4608C7.91596 25.5186 7.89338 25.5753 7.86786 25.6306C7.83955 25.6909 7.81595 25.7433 7.79549 25.7893C7.78166 25.8254 7.76052 25.8581 7.73343 25.8854C7.70634 25.9128 7.67389 25.9341 7.63817 25.948C7.55542 25.9679 7.4692 25.9679 7.38645 25.948C7.25429 25.9179 7.08124 25.8671 6.86727 25.7893C6.65331 25.7116 6.34181 25.6148 5.93276 25.4719L4.77012 25.0768L3.7538 24.7308C3.60906 24.6821 3.4832 24.6345 3.37622 24.588C3.28473 24.553 3.20162 24.4989 3.13237 24.4292C3.10851 24.3981 3.09165 24.3621 3.08295 24.3237C3.07426 24.2854 3.07394 24.2456 3.08202 24.2071C3.0914 24.137 3.1072 24.0679 3.12922 24.0008C3.15282 23.9293 3.14181 23.8865 3.09776 23.8722C3.0537 23.8579 3.0301 23.9008 2.99864 23.9944C2.96717 24.088 2.9184 24.2515 2.84131 24.4848C2.79097 24.653 2.75636 24.7625 2.73748 24.8165C2.7186 24.8704 2.6714 25.0101 2.60375 25.1974C2.51565 25.4338 2.45587 25.5941 2.42755 25.6735C2.39923 25.7528 2.39294 25.8401 2.42755 25.8512C2.46216 25.8623 2.50621 25.8385 2.52981 25.7671C2.55462 25.686 2.59007 25.6086 2.63522 25.537C2.71231 25.41 2.86019 25.3783 3.08045 25.4354C3.19372 25.464 3.32273 25.5037 3.46747 25.5529L4.48379 25.8988L5.65744 26.3194ZM3.84505 32.912C3.84505 32.931 3.82303 32.9373 3.79156 32.9294L2.24662 31.9391C2.20887 31.9216 2.18999 31.9042 2.19471 31.8851C2.19943 31.8661 2.21831 31.8645 2.25606 31.8629L4.06845 31.6026C4.0952 31.6026 4.10621 31.6233 4.10149 31.6471L3.84505 32.912ZM4.47435 31.5899C4.47727 31.5747 4.48495 31.5607 4.49627 31.5502C4.50759 31.5396 4.52196 31.533 4.53728 31.5312L6.09638 31.29C6.1155 31.2853 6.13547 31.2853 6.15459 31.29C6.17809 31.2927 6.19976 31.3041 6.21544 31.322C6.23111 31.3399 6.2397 31.3629 6.23954 31.3868C6.23168 31.4519 6.23954 31.4884 6.28202 31.4963C6.3245 31.5042 6.33866 31.4471 6.37327 31.3297V31.3011C6.43935 31.0329 6.49127 30.8012 6.5306 30.6076C6.56993 30.414 6.61398 30.2124 6.65803 30.0061C6.67824 29.9217 6.6914 29.8356 6.69736 29.749C6.69736 29.7046 6.6832 29.6807 6.65488 29.6744C6.62656 29.6681 6.5951 29.6934 6.58252 29.7522C6.56241 29.849 6.5329 29.9436 6.49441 30.0347C6.43855 30.14 6.35392 30.227 6.25056 30.2854C6.05287 30.3853 5.84028 30.4518 5.62126 30.4822C5.39943 30.5251 5.18389 30.5647 4.97307 30.6012L4.48537 30.6885L2.72961 31.0059L1.61418 31.198C1.32942 31.2471 1.1422 31.2805 1.07298 31.2979C0.915651 31.3313 0.830695 31.3725 0.819682 31.4233C0.81747 31.4422 0.819902 31.4613 0.826762 31.4791C0.833621 31.4968 0.844697 31.5125 0.859014 31.5249C0.91795 31.5816 0.982838 31.6316 1.05252 31.6741L4.96836 34.3133C5.11471 34.4034 5.24633 34.5158 5.35852 34.6466C5.44013 34.7554 5.47627 34.8921 5.45921 35.0275C5.45366 35.1 5.44367 35.172 5.42932 35.2433C5.41673 35.2989 5.42932 35.3306 5.4655 35.3385C5.50169 35.3465 5.54259 35.3084 5.56147 35.2227C5.58664 35.1021 5.61024 34.9799 5.63542 34.8529C5.66059 34.7259 5.67789 34.6291 5.69362 34.5609C5.70936 34.4926 5.71565 34.4212 5.71723 34.4022C5.72981 34.3419 5.7597 34.2244 5.8069 34.0467C5.8541 33.8689 5.86668 33.7626 5.88399 33.6753C5.9013 33.588 5.88399 33.5547 5.83994 33.5452C5.79589 33.5357 5.77858 33.5674 5.76442 33.6356L5.74239 33.7388C5.73795 33.8129 5.70789 33.8831 5.65744 33.9372C5.63293 33.9542 5.605 33.9656 5.57564 33.9705C5.54627 33.9755 5.51619 33.9738 5.48753 33.9657C5.34592 33.9264 5.21262 33.8614 5.09421 33.7737L4.19746 33.1944C4.16442 33.1738 4.15026 33.1484 4.15656 33.1214L4.47435 31.5899ZM0.530204 39.3505C0.508976 39.3513 0.488109 39.3448 0.47098 39.3322C0.45385 39.3195 0.441458 39.3014 0.435808 39.2807C0.421277 39.1568 0.421277 39.0317 0.435808 38.9078C0.444544 38.7872 0.472157 38.6689 0.517618 38.557C0.570285 38.4313 0.647306 38.3175 0.744165 38.2222C0.862467 38.11 1.00449 38.0264 1.15951 37.9778C1.57637 37.8599 2.02073 37.8902 2.41811 38.0635C2.56758 38.1349 2.69608 38.2442 2.79097 38.3809C2.83056 38.4423 2.85832 38.5106 2.87278 38.5824C2.8842 38.6831 2.8842 38.7848 2.87278 38.8855C2.87278 38.9792 2.85547 39.0744 2.83974 39.1696C2.82537 39.2535 2.80325 39.3359 2.77366 39.4156C2.75991 39.4366 2.74035 39.453 2.71742 39.4629C2.69449 39.4728 2.66919 39.4757 2.64466 39.4712L0.530204 39.3505ZM3.27239 40.3377C3.68458 40.3615 4.0008 40.3805 4.21634 40.398C4.43187 40.4154 4.6128 40.4361 4.74653 40.4567C4.83852 40.4738 4.92826 40.5015 5.01398 40.5392C5.04188 40.5522 5.06606 40.5721 5.08422 40.5971C5.10239 40.6221 5.11395 40.6513 5.11781 40.6821C5.13189 40.7659 5.13664 40.8511 5.13197 40.936C5.13197 41.0106 5.14299 41.0503 5.18074 41.0518C5.2185 41.0534 5.25311 41.009 5.25783 40.9154C5.2657 40.79 5.27042 40.598 5.27671 40.3472C5.27671 40.1885 5.27671 40.0965 5.27671 40.0584C5.27671 40.0203 5.28615 39.9505 5.29716 39.8346C5.31447 39.5965 5.32863 39.4251 5.3365 39.3236C5.34436 39.222 5.35066 39.122 5.35695 39.0284C5.36324 38.9347 5.34122 38.8871 5.29402 38.884C5.24682 38.8808 5.23738 38.9094 5.23423 38.9649C5.23109 39.0204 5.2248 39.0665 5.21536 39.1236C5.20592 39.1807 5.1949 39.2458 5.18704 39.3014C5.1829 39.3414 5.16932 39.3799 5.14742 39.4136C5.12552 39.4473 5.09595 39.4752 5.06118 39.495C4.97471 39.5307 4.88244 39.5501 4.789 39.5521C4.6537 39.5521 4.47435 39.5521 4.25252 39.5521C4.03069 39.5521 3.71132 39.5283 3.29913 39.5045H3.20159C3.19397 39.5055 3.18621 39.5046 3.17901 39.5019C3.1718 39.4992 3.16536 39.4948 3.16025 39.489C3.15513 39.4832 3.15149 39.4762 3.14965 39.4687C3.14781 39.4612 3.14781 39.4533 3.14967 39.4458L3.19687 38.8364C3.1966 38.8128 3.20154 38.7894 3.21134 38.768C3.22114 38.7466 3.23554 38.7277 3.25351 38.7126C3.28183 38.6919 3.32273 38.6634 3.37308 38.6316L3.73178 38.4031C3.94731 38.2698 4.12194 38.1603 4.25252 38.073C4.49837 37.9189 4.73575 37.7515 4.96363 37.5715C5.10699 37.4601 5.23043 37.3249 5.32863 37.1716C5.38374 37.0806 5.4246 36.9815 5.44977 36.878C5.47874 36.7293 5.49662 36.5786 5.50326 36.4272L5.53945 35.7607C5.53945 35.6734 5.52371 35.6274 5.47809 35.6242C5.43247 35.621 5.42145 35.6496 5.4183 35.7051C5.41268 35.771 5.40163 35.8363 5.38527 35.9003C5.35553 36.0182 5.30776 36.1306 5.24367 36.2336C5.14147 36.3923 5.01511 36.5337 4.86924 36.6526C4.60493 36.8769 4.07317 37.2736 3.27396 37.8429L2.95931 38.0698C2.76227 37.771 2.51146 37.5121 2.21988 37.3065C1.99039 37.1572 1.72634 37.0708 1.4537 37.0557C1.25169 37.0408 1.04945 37.0814 0.868453 37.1731C0.716106 37.244 0.581239 37.3481 0.473567 37.4778C0.346812 37.6458 0.255277 37.838 0.204539 38.0428C0.148397 38.275 0.114158 38.512 0.102278 38.7506C0.102278 38.8173 0.0896914 38.9728 0.0755322 39.2268C0.0613729 39.4807 0.0660932 39.6632 0.0613734 39.7473C0.0613734 39.7706 0.0535069 39.8642 0.0377744 40.0282C0.0236151 40.2091 0.0126019 40.3456 0.00788215 40.4297C0.00316238 40.5138 -0.00155714 40.6091 -0.00785016 40.7075C-0.0141432 40.8059 0.00473564 40.8662 0.0472135 40.8662C0.0896914 40.8662 0.111717 40.8297 0.116437 40.7503C0.11803 40.6582 0.130173 40.5666 0.152623 40.4773C0.167102 40.3891 0.215061 40.31 0.286349 40.2567C0.373074 40.2147 0.468645 40.1945 0.564815 40.198C0.681235 40.198 0.816535 40.198 0.969141 40.2076L2.04053 40.2694L3.27239 40.3377ZM3.31644 43.6705C3.74279 43.6625 4.07003 43.6578 4.295 43.6594C4.51998 43.6609 4.69933 43.6593 4.83463 43.6768C5.04387 43.6959 5.16187 43.7625 5.18704 43.8736C5.20756 43.9561 5.21812 44.0409 5.2185 44.1259C5.2185 44.2005 5.24053 44.2386 5.27671 44.237C5.3129 44.2354 5.34594 44.1894 5.34436 44.0958C5.34279 44.0022 5.33492 43.8117 5.31919 43.5403C5.31919 43.3562 5.3066 43.2451 5.3066 43.207C5.3066 43.142 5.3066 43.0325 5.3066 42.8817C5.3066 42.5643 5.3066 42.304 5.3066 42.1072C5.3066 42.0184 5.28143 41.9739 5.23423 41.9755C5.18704 41.9771 5.17917 42.0136 5.18074 42.0898C5.18449 42.1506 5.18449 42.2115 5.18074 42.2723C5.17445 42.3368 5.16973 42.3955 5.16658 42.4484C5.16545 42.4876 5.15618 42.526 5.13938 42.5613C5.12257 42.5965 5.09861 42.6278 5.06904 42.6532C4.99678 42.6991 4.9149 42.7273 4.82991 42.7357C4.69618 42.7516 4.51526 42.7627 4.29186 42.7706L3.30542 42.7928L2.07986 42.815L1.00847 42.8357C0.851147 42.8357 0.720567 42.8357 0.604146 42.8357C0.507618 42.8358 0.412163 42.8153 0.324107 42.7754C0.291114 42.7542 0.26306 42.7261 0.241875 42.6929C0.220691 42.6598 0.20688 42.6224 0.201393 42.5833C0.188076 42.5142 0.180185 42.4442 0.177794 42.3739C0.177794 42.2977 0.152622 42.2612 0.105424 42.2628C0.0582267 42.2643 0.050361 42.312 0.0519343 42.4104C0.0535075 42.5088 0.0629461 42.6801 0.0755322 42.923C0.0755322 43.0991 0.0881188 43.2134 0.0896921 43.2705C0.0912653 43.3277 0.0896921 43.4753 0.0896921 43.6752C0.0896921 43.9276 0.0896921 44.099 0.0896921 44.1878C0.0896921 44.3005 0.110145 44.3561 0.147903 44.3561C0.185661 44.3561 0.217126 44.3164 0.215553 44.2418C0.212727 44.1565 0.220656 44.0712 0.239151 43.9879C0.269043 43.8419 0.396477 43.7609 0.624599 43.7419C0.739447 43.7308 0.874746 43.7228 1.02735 43.7197L2.10031 43.7006L3.31644 43.6705ZM3.68615 48.2475C4.09835 48.2078 4.413 48.1808 4.63011 48.1634C4.84721 48.1459 5.02814 48.1396 5.16344 48.1411C5.25708 48.1432 5.35009 48.1571 5.44033 48.1824C5.47011 48.1905 5.49727 48.2063 5.51908 48.2283C5.54089 48.2503 5.55659 48.2777 5.56462 48.3078C5.58981 48.3889 5.60668 48.4724 5.61496 48.5569C5.62283 48.6315 5.64485 48.6664 5.68104 48.6633C5.71722 48.6601 5.74712 48.6093 5.73768 48.5173C5.72824 48.4252 5.70936 48.2348 5.67947 47.965C5.65744 47.7841 5.64485 47.6746 5.64171 47.6365C5.63069 47.5301 5.61968 47.3524 5.60552 47.1032C5.58664 46.8287 5.56934 46.5938 5.55518 46.4033C5.54102 46.2129 5.52057 45.9764 5.49382 45.6955C5.49039 45.6015 5.47343 45.5085 5.44348 45.4194C5.42303 45.3781 5.36796 45.3511 5.28615 45.3353C5.24839 45.3353 5.19805 45.3257 5.12883 45.321L4.89599 45.3115C4.80474 45.3115 4.72607 45.3115 4.65842 45.3115C4.59077 45.3115 4.53886 45.3115 4.5011 45.3194C4.46821 45.321 4.43581 45.328 4.40513 45.34C4.39645 45.3441 4.3894 45.351 4.38511 45.3597C4.38083 45.3683 4.37957 45.3782 4.38153 45.3876C4.38153 45.4241 4.42244 45.4479 4.49323 45.4543C4.6113 45.4576 4.72769 45.4834 4.8362 45.5305C4.91942 45.5735 4.98874 45.6395 5.03601 45.7209C5.08392 45.8071 5.1164 45.9011 5.13197 45.9986C5.15085 46.1081 5.16816 46.2335 5.18074 46.3732C5.1969 46.5196 5.20269 46.6671 5.19805 46.8144C5.19623 46.9027 5.17472 46.9895 5.13512 47.0683C5.09949 47.1304 5.04403 47.1785 4.97779 47.2048C4.88105 47.2386 4.78074 47.261 4.67888 47.2714L3.60434 47.3746L3.05685 47.427C3.01123 47.427 2.98605 47.427 2.98291 47.3921C2.97189 47.273 2.95616 47.1032 2.93571 46.8779C2.9247 46.7604 2.91526 46.6573 2.91054 46.5684C2.90665 46.5097 2.90665 46.4509 2.91054 46.3922C2.90617 46.2939 2.92847 46.1962 2.97504 46.1097C3.01315 46.045 3.07281 45.9961 3.14338 45.9717C3.20455 45.9557 3.26652 45.943 3.32902 45.9336C3.34906 45.9275 3.36959 45.9233 3.39038 45.9209C3.39901 45.9211 3.40757 45.9193 3.41541 45.9157C3.42325 45.9121 3.43017 45.9067 3.43564 45.8999C3.4411 45.8932 3.44497 45.8853 3.44694 45.8768C3.44891 45.8683 3.44894 45.8595 3.44702 45.851C3.44723 45.8395 3.44341 45.8282 3.43622 45.8192C3.42903 45.8102 3.41893 45.8041 3.40769 45.8018C3.37535 45.797 3.34248 45.797 3.31014 45.8018L3.08989 45.8114H2.84289C2.69552 45.8187 2.54782 45.816 2.4008 45.8034H2.33787C2.30012 45.8034 2.28438 45.8241 2.28753 45.8574C2.29068 45.8907 2.31742 45.9129 2.37249 45.9542C2.37759 45.9525 2.38311 45.9525 2.38822 45.9542C2.46883 46.0451 2.51653 46.1609 2.52352 46.2827C2.53453 46.3573 2.55184 46.5081 2.57701 46.7398C2.60218 46.9715 2.62263 47.1937 2.64308 47.4048C2.64308 47.4381 2.62106 47.4555 2.57071 47.4603L0.816536 47.6285C0.770912 47.6285 0.74574 47.619 0.742593 47.5857C0.73158 47.4635 0.717421 47.2952 0.701688 47.0794C0.701688 46.9334 0.685956 46.8223 0.681236 46.7445C0.676516 46.6668 0.681236 46.6144 0.681236 46.5858C0.675999 46.4679 0.694737 46.3502 0.7363 46.2399C0.770989 46.174 0.826303 46.1215 0.893625 46.0907C0.932291 46.0719 0.972925 46.0575 1.01477 46.0478C1.05558 46.0373 1.09713 46.0298 1.13905 46.0256C1.20356 46.0256 1.23345 45.9955 1.2303 45.9526C1.22716 45.9098 1.19884 45.8939 1.14692 45.8907C1.10396 45.8881 1.06087 45.8881 1.01791 45.8907H0.832269H0.685956C0.556813 45.8957 0.427486 45.8914 0.298935 45.878H0.237578C0.195101 45.878 0.176221 45.8971 0.179368 45.9256C0.182604 45.9493 0.189505 45.9724 0.199819 45.9939C0.208231 46.0063 0.214113 46.0204 0.217125 46.0351C0.231285 46.0796 0.253311 46.1796 0.286349 46.3319C0.295788 46.4192 0.349279 47.0032 0.443674 48.0777C0.443674 48.1348 0.454687 48.2538 0.476713 48.4347C0.492445 48.7521 0.506604 48.9712 0.516044 49.087C0.525483 49.2029 0.552229 49.2457 0.593133 49.2362C0.634038 49.2267 0.652917 49.1902 0.645051 49.1108C0.634248 49.0196 0.634248 48.9275 0.645051 48.8363C0.646953 48.7466 0.682354 48.661 0.744165 48.5966C0.824071 48.5421 0.915806 48.5078 1.01162 48.4966C1.12594 48.4776 1.25967 48.4601 1.4128 48.4443L2.48104 48.3427L3.68615 48.2475ZM6.65488 55.8081C6.78345 55.793 6.91333 55.793 7.0419 55.8081C7.08721 55.8111 7.13096 55.8259 7.16878 55.8513C7.2066 55.8766 7.23717 55.9115 7.25744 55.9525C7.28825 56.0165 7.3125 56.0835 7.32981 56.1525C7.34712 56.2255 7.37229 56.2572 7.40375 56.2493C7.43522 56.2414 7.46826 56.189 7.4478 56.1081C7.42735 56.0271 7.38959 55.897 7.32981 55.6954C7.291 55.5558 7.2674 55.4701 7.25901 55.4383C7.248 55.3971 7.23227 55.3241 7.21024 55.2193C7.16619 55.0035 7.13001 54.8368 7.10011 54.7178C7.07022 54.5988 7.03404 54.5591 6.98527 54.5734C6.9365 54.5877 6.94594 54.6194 6.96324 54.6877C6.98671 54.7843 6.99938 54.8833 7.001 54.9828C7.00453 55.0412 6.99201 55.0994 6.96481 55.1511C6.95049 55.1742 6.93167 55.1941 6.9095 55.2096C6.88732 55.2252 6.86226 55.236 6.83581 55.2415C6.72941 55.2672 6.62176 55.2874 6.51329 55.3018L3.7365 55.6319V55.6034L3.96305 55.4161L4.34377 55.0987C4.4067 55.0447 4.52784 54.94 4.71034 54.7956L5.05803 54.5115C5.09894 54.4813 5.17917 54.4147 5.29874 54.3084L5.71093 53.9465C5.86616 53.81 6.09428 53.6069 6.3953 53.3371L6.43148 53.3069C6.60611 53.1482 6.6895 53.0483 6.68006 53.0117C6.67062 52.9752 6.6423 52.9562 6.58723 52.9419C6.53217 52.9276 6.41575 52.8975 6.23325 52.8578L2.79569 52.1516V52.1246L5.65744 50.9565C5.70477 50.9356 5.7537 50.9187 5.80375 50.9058C5.88871 50.8835 5.93905 50.8883 5.96108 50.9169C5.9831 50.9454 6.02716 50.9803 6.0539 50.974C6.06554 50.971 6.07574 50.9639 6.08266 50.9541C6.08959 50.9442 6.09278 50.9321 6.09166 50.92C6.09177 50.8669 6.08757 50.8138 6.07907 50.7613C6.06649 50.6883 6.04761 50.6026 6.02716 50.4931C6.0067 50.3836 5.97052 50.2313 5.92489 50.0265C5.84938 49.6869 5.79903 49.4679 5.76757 49.3679C5.7361 49.2679 5.69834 49.1981 5.64957 49.2092C5.6008 49.2203 5.61182 49.2568 5.62912 49.3298C5.66438 49.4735 5.67712 49.6218 5.66688 49.7694C5.66418 49.8219 5.6501 49.8731 5.62563 49.9194C5.60117 49.9658 5.56691 50.0061 5.52529 50.0376C5.38426 50.1373 5.23087 50.2179 5.06904 50.2773L1.05095 51.958C0.915651 52.0119 0.855867 52.0706 0.8716 52.1341C0.884186 52.1833 0.950262 52.2198 1.0714 52.242L5.38999 53.1149L2.03895 55.9398C1.98645 55.9818 1.93941 56.0304 1.89894 56.0842C1.88898 56.0975 1.88176 56.1126 1.87771 56.1286C1.87365 56.1447 1.87285 56.1615 1.87534 56.1779C1.8895 56.2318 1.95715 56.2556 2.07986 56.2493L6.65488 55.8081ZM6.41103 58.925C6.81064 58.7716 7.11637 58.6568 7.32824 58.5807C7.54063 58.5029 7.71211 58.4473 7.84269 58.4124C8.04564 58.3585 8.1778 58.3807 8.23915 58.4775C8.28594 58.5481 8.32497 58.6237 8.35557 58.7029C8.38232 58.7727 8.41221 58.8013 8.44682 58.7886C8.48143 58.7759 8.49559 58.7187 8.46255 58.6299C8.42952 58.541 8.35715 58.368 8.25331 58.1156C8.18409 57.9458 8.14161 57.8427 8.12902 57.8078C8.10543 57.7459 8.06924 57.6491 8.02047 57.5015C7.91506 57.1983 7.82853 56.9571 7.75931 56.773C7.72784 56.6905 7.69008 56.6572 7.64761 56.673C7.60513 56.6889 7.60828 56.7286 7.63502 56.7984C7.66177 56.8682 7.67278 56.9095 7.69009 56.973C7.70739 57.0365 7.72155 57.0936 7.73571 57.1428C7.74778 57.1801 7.75205 57.2195 7.74826 57.2586C7.74447 57.2977 7.7327 57.3355 7.71369 57.3698C7.66028 57.437 7.59252 57.4913 7.51545 57.5285C7.39431 57.5903 7.2307 57.6618 7.01988 57.7459L6.1011 58.103L4.95577 58.5362L3.95361 58.9219C3.81096 58.9769 3.68353 59.0213 3.5713 59.0552C3.4806 59.0877 3.38402 59.1002 3.28812 59.0917C3.25008 59.0837 3.21427 59.0673 3.18325 59.0438C3.15224 59.0201 3.1268 58.9899 3.10877 58.9552C3.07289 58.894 3.04134 58.8304 3.01437 58.7647C2.98763 58.6949 2.95302 58.6679 2.90896 58.6854C2.86491 58.7029 2.87435 58.7505 2.90896 58.8441C2.94358 58.9377 3.00808 59.0949 3.10247 59.3202C3.16855 59.4789 3.21103 59.59 3.23148 59.6376C3.25193 59.6852 3.30228 59.8297 3.36835 60.0185C3.44859 60.2582 3.50523 60.4184 3.53669 60.4946C3.56816 60.5708 3.61378 60.6533 3.64839 60.6311C3.68301 60.6089 3.70031 60.5708 3.67357 60.501C3.64237 60.422 3.62123 60.3393 3.61064 60.255C3.58861 60.1074 3.68301 59.9868 3.89067 59.8915C3.99608 59.8408 4.1188 59.7884 4.26196 59.7328L5.26413 59.3472L6.41103 58.925ZM6.03502 64.8558C6.01764 64.8679 5.9966 64.8734 5.97559 64.8713C5.95458 64.8693 5.93496 64.8599 5.92017 64.8447C5.8412 64.7477 5.77461 64.641 5.72194 64.5273C5.66713 64.4199 5.63044 64.304 5.61339 64.1845C5.59336 64.0473 5.60139 63.9074 5.63699 63.7734C5.68178 63.6161 5.76079 63.4708 5.86826 63.3481C6.16333 63.0327 6.55628 62.8284 6.98212 62.7688C7.14721 62.7527 7.31364 62.78 7.46511 62.8482C7.53067 62.8805 7.58985 62.9246 7.63974 62.9783C7.70159 63.0572 7.75437 63.1429 7.79707 63.2338C7.84059 63.3178 7.87945 63.4042 7.91349 63.4925C7.94446 63.572 7.96765 63.6544 7.98271 63.7385C7.98271 63.7845 7.95911 63.8226 7.9009 63.8528L6.03502 64.8558ZM8.88733 64.2686C9.25233 64.0728 9.53342 63.9253 9.7306 63.8258C9.92883 63.7258 10.0893 63.6496 10.2152 63.5989C10.3024 63.5651 10.3932 63.5417 10.4858 63.529C10.5155 63.5263 10.5455 63.5311 10.573 63.543C10.6005 63.5549 10.6246 63.5736 10.6431 63.5973C10.6979 63.6621 10.7454 63.7329 10.7847 63.8083C10.8209 63.8734 10.8539 63.8988 10.8869 63.8813C10.92 63.8639 10.9263 63.8068 10.8869 63.7226C10.8272 63.61 10.7296 63.4449 10.61 63.2259C10.5345 63.091 10.4873 63.0085 10.47 62.9751C10.4527 62.9418 10.4213 62.8783 10.3709 62.7736C10.2655 62.5594 10.1884 62.407 10.1428 62.3149C10.0972 62.2229 10.0531 62.1356 10.0091 62.0515C9.96501 61.9674 9.92253 61.9388 9.88163 61.961C9.84073 61.9833 9.84544 62.0118 9.87219 62.0626C9.89763 62.1115 9.92022 62.1618 9.93984 62.2134C9.96187 62.2721 9.98546 62.3276 10.0075 62.38C10.0243 62.4163 10.0322 62.4562 10.0305 62.4962C10.0289 62.5363 10.0177 62.5753 9.99805 62.6101C9.94393 62.6867 9.87553 62.752 9.79667 62.8022C9.6834 62.8783 9.52922 62.9704 9.33571 63.0799C9.1422 63.1894 8.86373 63.3418 8.49559 63.537L8.40906 63.583C8.40288 63.5874 8.3958 63.5903 8.38835 63.5915C8.3809 63.5928 8.37326 63.5923 8.36601 63.5902C8.35875 63.5881 8.35207 63.5843 8.34645 63.5792C8.34083 63.5741 8.33642 63.5678 8.33355 63.5608L8.06295 63.0132C8.05059 62.9933 8.04277 62.9709 8.04005 62.9476C8.03733 62.9243 8.03978 62.9006 8.04721 62.8783C8.0598 62.845 8.08025 62.8006 8.107 62.7466L8.29579 62.3641C8.41378 62.1372 8.5066 61.9515 8.57268 61.8103C8.70359 61.552 8.82121 61.2872 8.92509 61.0168C8.99055 60.8459 9.02622 60.665 9.0305 60.4819C9.0324 60.3743 9.017 60.2671 8.98487 60.1645C8.93391 60.0217 8.87184 59.8832 8.79923 59.7503L8.48458 59.1615C8.4421 59.0822 8.4012 59.0536 8.36029 59.0758C8.31939 59.098 8.32411 59.1266 8.35085 59.1774C8.38042 59.2359 8.40464 59.297 8.42322 59.3599C8.45726 59.4763 8.47422 59.5972 8.47357 59.7186C8.4673 59.9083 8.43119 60.0958 8.36659 60.274C8.2617 60.602 8.0105 61.2183 7.613 62.1229L7.45567 62.4848C7.13431 62.3322 6.78745 62.2418 6.43305 62.2181C6.15929 62.2099 5.88814 62.2739 5.64643 62.4038C5.46573 62.4964 5.31344 62.6368 5.20592 62.8101C5.11199 62.9501 5.05019 63.1095 5.02499 63.2767C5.00263 63.4865 5.02298 63.6988 5.08478 63.9004C5.15513 64.1284 5.24734 64.349 5.3601 64.559C5.38999 64.6177 5.46393 64.7558 5.57878 64.9748C5.69363 65.1938 5.79274 65.3541 5.83207 65.4287L5.97209 65.6779C6.05233 65.8366 6.11368 65.962 6.15301 66.0381L6.28202 66.2841C6.33079 66.3746 6.37327 66.4111 6.40946 66.3905C6.44564 66.3698 6.44721 66.3254 6.40946 66.2556C6.36432 66.1757 6.32792 66.091 6.3009 66.0032C6.2679 65.9202 6.2679 65.8275 6.3009 65.7445C6.35285 65.6624 6.42492 65.5952 6.51014 65.5493C6.60769 65.4858 6.72568 65.4192 6.86098 65.3462L7.80493 64.8399L8.88733 64.2686ZM11.5115 68.3473C11.8482 68.106 12.1078 67.9225 12.2903 67.7966C12.4728 67.6728 12.6222 67.576 12.7402 67.5093C12.8226 67.4647 12.9097 67.4296 12.9998 67.4046C13.0297 67.3972 13.0609 67.3975 13.0906 67.4056C13.1203 67.4136 13.1476 67.4291 13.1697 67.4506C13.2324 67.5078 13.2888 67.5717 13.3381 67.641C13.3805 67.7013 13.4183 67.722 13.4482 67.6998C13.4781 67.6775 13.4781 67.6204 13.4246 67.5411C13.3711 67.4617 13.2578 67.3125 13.0942 67.0967C12.9857 66.9507 12.9196 66.8634 12.8991 66.8317C12.8787 66.7999 12.8236 66.7221 12.7229 66.5698C12.5499 66.3095 12.4083 66.0937 12.2903 65.935C12.2399 65.8636 12.1943 65.8398 12.1566 65.8667C12.1188 65.8937 12.133 65.9302 12.1754 65.9921C12.2109 66.0431 12.2435 66.0961 12.273 66.1508C12.3044 66.2095 12.3328 66.2603 12.3595 66.3095C12.3808 66.3435 12.3938 66.3821 12.3974 66.4221C12.4009 66.4621 12.395 66.5024 12.38 66.5396C12.3376 66.621 12.2799 66.6932 12.21 66.7523C12.1046 66.8459 11.963 66.9586 11.7868 67.0903C11.6106 67.2221 11.3526 67.4077 11.0159 67.6521L8.74417 69.2804C8.68438 69.3233 8.63718 69.3344 8.60415 69.3106C8.53469 69.251 8.47427 69.1815 8.4248 69.1043C8.35583 69.0077 8.30271 68.9005 8.26747 68.7869C8.22772 68.6527 8.21752 68.5113 8.23758 68.3727C8.25366 68.1663 8.32851 67.969 8.45311 67.8045C8.56749 67.6599 8.70148 67.5322 8.85115 67.4252C8.98035 67.3302 9.12682 67.2617 9.28222 67.2236C9.42403 67.1874 9.5713 67.1783 9.71644 67.1967C9.84382 67.2118 9.96746 67.25 10.0814 67.3094C10.1788 67.3595 10.2634 67.4318 10.3284 67.5204C10.404 67.6268 10.4622 67.6648 10.5062 67.6347C10.5158 67.6301 10.5237 67.6225 10.5288 67.6131C10.5339 67.6037 10.5359 67.5929 10.5345 67.5823C10.5346 67.5619 10.5297 67.5417 10.5204 67.5236C10.5062 67.5046 10.4779 67.4649 10.4354 67.403C10.3013 67.2104 10.1333 67.0441 9.93984 66.9126C9.7584 66.7909 9.55456 66.7072 9.34043 66.6666C9.12533 66.6275 8.90447 66.6345 8.69225 66.6872C8.46579 66.7428 8.25211 66.8419 8.06295 66.9792C7.9275 67.0752 7.81558 67.2012 7.73571 67.3474C7.66285 67.4711 7.61325 67.6072 7.5894 67.749C7.57843 67.815 7.57369 67.882 7.57524 67.9489C7.57965 68.0361 7.59176 68.1226 7.61142 68.2076C7.64179 68.3357 7.68556 68.4602 7.742 68.579C7.81829 68.7435 7.90996 68.9002 8.01575 69.0471C8.08078 69.1392 8.18566 69.2836 8.3304 69.4804C8.46727 69.6645 8.5601 69.7978 8.61044 69.8645C8.64348 69.9105 8.70956 70.0105 8.81182 70.1612C8.98645 70.4263 9.10759 70.6072 9.17524 70.7024C9.24289 70.7976 9.28065 70.8167 9.31526 70.7913C9.34987 70.7659 9.34358 70.7231 9.29795 70.658C9.24237 70.5846 9.19489 70.5053 9.15636 70.4215C9.11389 70.343 9.10263 70.251 9.12489 70.1644C9.16651 70.0767 9.22925 70.0008 9.30739 69.9438C9.39759 69.8676 9.50247 69.7851 9.62204 69.6962L10.4968 69.0614L11.5115 68.3473Z" fill="black"/>
<path d="M41.7478 5.6308C41.548 6.01169 41.3923 6.30211 41.2837 6.50049C41.1752 6.69887 41.0824 6.85441 41.0068 6.96867C40.8889 7.14325 40.774 7.21625 40.6655 7.18451C40.5842 7.16188 40.5056 7.13048 40.431 7.09087C40.365 7.05596 40.3241 7.05437 40.3067 7.09087C40.2894 7.12737 40.3146 7.17498 40.3964 7.21783C40.4782 7.26068 40.6466 7.34638 40.8904 7.46541C41.0478 7.54794 41.1516 7.59714 41.1846 7.61618C41.2434 7.6458 41.3378 7.69871 41.4678 7.77488C41.7431 7.93359 41.9665 8.05738 42.1396 8.14942C42.2167 8.19227 42.267 8.19227 42.2891 8.14942C42.3111 8.10657 42.2891 8.08277 42.2167 8.04785C42.1619 8.02018 42.1093 7.98835 42.0594 7.95263L41.913 7.85582C41.8799 7.83548 41.8512 7.80852 41.8287 7.77659C41.8063 7.74466 41.7905 7.70843 41.7825 7.67014C41.7776 7.58424 41.7927 7.49839 41.8265 7.41939C41.8769 7.29401 41.9539 7.12896 42.0578 6.92741C42.1616 6.72585 42.3142 6.43225 42.5156 6.0466L43.0883 4.95314C43.351 4.45322 43.5193 4.13423 43.5901 4.00091C43.6609 3.8676 43.7286 3.7454 43.7915 3.64701C43.838 3.5615 43.9024 3.48729 43.9803 3.42958C44.0143 3.41036 44.0521 3.39897 44.091 3.39623C44.1299 3.39348 44.1689 3.39945 44.2053 3.41371C44.272 3.43497 44.3367 3.46205 44.3988 3.49465C44.4649 3.52956 44.5089 3.52639 44.5309 3.48513C44.553 3.44387 44.5184 3.40419 44.4271 3.3661C44.3406 3.32008 44.1895 3.2439 43.9709 3.13916C43.8135 3.06139 43.7128 3.00902 43.6562 2.98045C43.5996 2.95189 43.4784 2.88364 43.3069 2.78525C43.0883 2.65828 42.9419 2.57576 42.8633 2.53291C42.7846 2.49006 42.706 2.47101 42.6902 2.50434C42.6745 2.53767 42.6902 2.58369 42.7547 2.61861C42.8302 2.65715 42.9005 2.70514 42.964 2.76144C43.0757 2.85825 43.0851 3.01219 42.9907 3.22168C42.9451 3.3296 42.8853 3.4518 42.8145 3.58829L42.3126 4.54051L41.7478 5.6308ZM37.6259 4.1136C37.5032 4.51141 37.4072 4.81612 37.338 5.02773C37.2688 5.23933 37.2074 5.4065 37.1539 5.52923C37.1192 5.61559 37.072 5.69634 37.0139 5.76887C36.994 5.79353 36.9684 5.81281 36.9393 5.825C36.9102 5.83719 36.8785 5.8419 36.8472 5.8387C36.7633 5.8312 36.6805 5.81471 36.6002 5.7895C36.5294 5.76728 36.4885 5.77522 36.4774 5.81014C36.4664 5.84505 36.501 5.89108 36.5891 5.91964C36.6772 5.94821 36.8597 5.99899 37.1193 6.07835L37.434 6.1688L37.7486 6.27514C38.0476 6.37829 38.2867 6.45765 38.4692 6.51478C38.5526 6.54176 38.6029 6.53224 38.6155 6.4878C38.6281 6.44336 38.5966 6.42273 38.5258 6.40051C38.4681 6.38253 38.4113 6.36133 38.3559 6.33703L38.1986 6.2672C38.1605 6.25417 38.1262 6.23185 38.0988 6.20222C38.0713 6.17259 38.0516 6.13658 38.0413 6.09739C38.0235 6.00728 38.0235 5.91453 38.0413 5.82442C38.0675 5.68582 38.1115 5.50966 38.1734 5.29594C38.2353 5.08221 38.3271 4.77592 38.4487 4.37704L39.292 1.62671L40.1242 1.90762C40.3299 1.96075 40.5199 2.06309 40.678 2.20598C40.7216 2.24531 40.755 2.29478 40.7753 2.35011C40.7956 2.40543 40.8022 2.46491 40.7945 2.52339L40.7787 2.59798C40.7551 2.69002 40.7661 2.7424 40.8102 2.75668C40.8542 2.77096 40.8731 2.73763 40.903 2.66939C40.9329 2.60115 40.9722 2.4599 41.0478 2.24407C41.1233 2.02823 41.15 1.93618 41.1626 1.89651C41.1909 1.80287 41.1878 1.7505 41.1516 1.7378C41.1289 1.73242 41.1057 1.72975 41.0824 1.72987C41.0021 1.72035 40.925 1.70765 40.8306 1.69178C40.7161 1.67015 40.6031 1.64099 40.4924 1.60449L37.8588 0.782408C37.7471 0.747493 37.6338 0.707817 37.5158 0.66338C37.3978 0.618943 37.294 0.579269 37.2011 0.54118C37.1296 0.510942 37.064 0.467932 37.0076 0.414217C36.9879 0.395777 36.965 0.381239 36.94 0.371367C36.9054 0.360257 36.866 0.393585 36.822 0.472937C36.822 0.472937 36.8015 0.512612 36.7638 0.576093L36.6316 0.818911C36.5797 0.915721 36.5372 0.998245 36.5042 1.0649C36.4712 1.13156 36.4523 1.17917 36.4444 1.20139C36.4224 1.2728 36.4318 1.31565 36.4712 1.32676C36.5105 1.33787 36.5404 1.31883 36.5703 1.26963C36.6208 1.19362 36.6829 1.12613 36.7543 1.06966C36.8269 1.01298 36.9177 0.985292 37.0092 0.991898C37.1622 1.00501 37.3135 1.03372 37.4607 1.0776L38.4597 1.36009L37.6259 4.1136ZM32.2249 3.25183C32.2061 3.25183 32.1982 3.23438 32.1982 3.20105L32.8967 1.49657C32.9077 1.45372 32.9235 1.43309 32.9408 1.43468C32.9581 1.43627 32.9659 1.45372 32.9738 1.49181L33.5418 3.24707C33.5418 3.27564 33.5292 3.28992 33.5056 3.28834L32.2249 3.25183ZM33.6267 3.65018C33.642 3.6508 33.6567 3.65616 33.6688 3.66554C33.6809 3.67492 33.6898 3.68785 33.6944 3.70255L34.2009 5.21024C34.2094 5.22749 34.2137 5.24652 34.2135 5.26578C34.2151 5.28992 34.2077 5.31378 34.1929 5.33281C34.1781 5.35184 34.1569 5.3647 34.1333 5.36894C34.0672 5.36894 34.0342 5.39116 34.0342 5.42925C34.0342 5.46733 34.0924 5.47844 34.212 5.49114H34.2403C34.514 5.51018 34.7484 5.52288 34.9467 5.52923L35.5555 5.54986C35.6414 5.55752 35.7277 5.55752 35.8135 5.54986C35.856 5.54193 35.8765 5.52288 35.878 5.4959C35.8796 5.46892 35.8497 5.43877 35.7899 5.4356C35.6914 5.43291 35.5933 5.42015 35.4973 5.39751C35.3853 5.36064 35.2864 5.29171 35.2125 5.19913C35.0804 5.02157 34.9783 4.82315 34.9105 4.61192C34.8302 4.39767 34.7532 4.19136 34.6808 3.98822L34.5125 3.51211C34.4715 3.40631 34.2686 2.84291 33.9036 1.82192L33.5213 0.747493C33.4238 0.472936 33.364 0.299951 33.3309 0.228534C33.2712 0.0698308 33.2145 -0.00158679 33.1642 -0.00317383C33.1454 -0.00160562 33.1272 0.00437607 33.1111 0.0142958C33.0949 0.0242155 33.0813 0.0377987 33.0714 0.0539595C33.0263 0.12206 32.9888 0.194977 32.9597 0.271383L31.0639 4.62462C31.0009 4.78519 30.9139 4.93506 30.8059 5.06899C30.7137 5.16956 30.5859 5.22943 30.4503 5.23563C30.3785 5.24029 30.3065 5.24029 30.2348 5.23563C30.1797 5.23563 30.1514 5.2515 30.1498 5.288C30.1482 5.3245 30.1907 5.35942 30.2788 5.36259C30.3994 5.36259 30.5237 5.36576 30.6517 5.37211H30.9475H31.1048C31.1646 5.37211 31.2857 5.38322 31.4651 5.39909L31.8411 5.41179C31.9213 5.41179 31.9606 5.39274 31.9622 5.34513C31.9638 5.29752 31.9292 5.288 31.8599 5.28641H31.7561C31.6795 5.29232 31.6034 5.26974 31.5421 5.22293C31.5219 5.20213 31.5062 5.17723 31.4962 5.14988C31.4861 5.12252 31.482 5.09333 31.4839 5.06423C31.4979 4.91632 31.5384 4.7722 31.6035 4.6389L32.0125 3.64859C32.0283 3.61209 32.0487 3.59305 32.0771 3.59463L33.6267 3.65018ZM29.0186 4.4437C29.0514 4.58944 29.0514 4.74074 29.0186 4.88648C28.9917 5.00046 28.9377 5.10613 28.8613 5.19437C28.792 5.273 28.7081 5.33717 28.6143 5.38322C28.5298 5.4256 28.4398 5.45553 28.3469 5.4721C28.2595 5.48784 28.1712 5.49739 28.0826 5.50066C27.998 5.50126 27.9136 5.49275 27.8308 5.47527C27.7833 5.46708 27.738 5.44868 27.6981 5.42129C27.6582 5.39391 27.6246 5.3582 27.5996 5.31657C27.5382 5.16681 27.4975 5.00929 27.4784 4.84839L27.2015 3.2074C27.2015 3.17566 27.2015 3.15661 27.2346 3.15185L27.5288 3.10107C27.6409 3.08466 27.7549 3.08466 27.867 3.10107C27.9576 3.11474 28.0456 3.14203 28.1282 3.18201C28.3814 3.29604 28.5958 3.48256 28.7449 3.71842C28.8841 3.93944 28.9773 4.18676 29.0186 4.44528V4.4437ZM26.8318 1.06966C26.8208 1.00618 26.8318 0.963332 26.8727 0.9427C26.9461 0.918487 27.0214 0.900437 27.0977 0.888739C27.2283 0.86396 27.3632 0.875481 27.4879 0.922068C27.6068 0.969061 27.7142 1.04163 27.8025 1.13473C27.8923 1.22797 27.9667 1.33514 28.0228 1.45214C28.0763 1.56603 28.1144 1.68667 28.1361 1.81081C28.1927 2.14726 28.1402 2.40806 27.9787 2.59322C27.9308 2.65445 27.8679 2.70203 27.7962 2.73129C27.7029 2.76795 27.6058 2.79403 27.5068 2.80905C27.3991 2.8316 27.2895 2.84329 27.1795 2.84397C27.1465 2.84397 27.126 2.81699 27.1197 2.77572L26.8318 1.06966ZM26.4826 4.02313C26.5518 4.43418 26.6037 4.74999 26.6399 4.97535C26.6761 5.20071 26.6934 5.3737 26.7028 5.51019C26.707 5.60431 26.7002 5.6986 26.6824 5.79109C26.6765 5.82154 26.6629 5.84991 26.6427 5.87331C26.6225 5.89672 26.5966 5.91435 26.5675 5.9244C26.4897 5.95733 26.4084 5.98128 26.3252 5.99582C26.2529 6.00851 26.2183 6.03232 26.2245 6.06882C26.2308 6.10532 26.2828 6.13072 26.374 6.11485C26.4653 6.09898 26.6493 6.06247 26.9136 6.00852L27.2362 5.94503C27.2865 5.94503 27.3447 5.92758 27.4108 5.91964L27.7884 5.87203L28.0857 5.8387L28.243 5.81648C28.5187 5.77385 28.7849 5.68309 29.0297 5.54827C29.2297 5.43897 29.405 5.28869 29.5441 5.10708C29.6679 4.94704 29.7559 4.76188 29.8021 4.56431C29.8473 4.3767 29.8542 4.1818 29.8226 3.99139C29.7928 3.80594 29.7241 3.62902 29.6212 3.47243C29.5229 3.32416 29.3993 3.19467 29.2562 3.08996C29.1112 2.98264 28.9524 2.89562 28.7842 2.83127C28.6286 2.77088 28.4673 2.72674 28.3028 2.69955C28.4766 2.51146 28.6205 2.29731 28.7292 2.06473C28.8207 1.84525 28.8449 1.60308 28.7984 1.36961C28.7776 1.25394 28.7382 1.14246 28.682 1.03951C28.6145 0.921047 28.5202 0.820422 28.4067 0.745907C28.2566 0.647651 28.0868 0.58423 27.9095 0.560224C27.6604 0.524931 27.4072 0.532444 27.1606 0.582442L26.8161 0.641162C26.6084 0.687186 26.4432 0.718928 26.3252 0.73956L26.0562 0.779236C25.891 0.803041 25.762 0.822085 25.6708 0.837955L25.3891 0.887153C25.2885 0.90461 25.2413 0.933177 25.2476 0.97444C25.2538 1.0157 25.2979 1.02999 25.375 1.01729C25.4644 0.998162 25.5558 0.98964 25.6472 0.991898C25.7359 0.987432 25.8229 1.0169 25.891 1.07442C25.9517 1.15024 25.9923 1.24034 26.009 1.33628C26.0373 1.44896 26.0641 1.58227 26.0908 1.73463C26.1176 1.88698 26.1758 2.24248 26.2702 2.80112L26.4826 4.02313ZM19.8167 6.74331C19.7994 6.74331 19.7836 6.74331 19.7695 6.71316L19.5335 4.88331C19.5225 4.84046 19.5335 4.81506 19.5414 4.80713C19.5492 4.79919 19.5728 4.80713 19.598 4.84046L20.9573 6.07835C20.9699 6.10374 20.9667 6.12119 20.9463 6.1323L19.8167 6.74331ZM21.2326 6.38623C21.2458 6.37859 21.2611 6.37554 21.2762 6.37754C21.2912 6.37955 21.3052 6.38651 21.316 6.39734L22.4991 7.45113C22.5153 7.46172 22.5283 7.47652 22.5368 7.49398C22.5504 7.51383 22.556 7.53815 22.5525 7.56201C22.549 7.58587 22.5367 7.6075 22.518 7.62253C22.4629 7.65744 22.444 7.69236 22.4613 7.72569C22.4786 7.75901 22.5368 7.73838 22.6485 7.68918L22.6721 7.67649C22.9191 7.55587 23.13 7.44796 23.3014 7.35908L23.8395 7.07024C23.9173 7.03276 23.9916 6.98813 24.0613 6.93693C24.0928 6.90836 24.1038 6.88297 24.0896 6.85758C24.0755 6.83218 24.0377 6.82266 23.9842 6.85758C23.8973 6.90388 23.8062 6.94162 23.7121 6.97026C23.5962 6.99451 23.4759 6.98403 23.3659 6.9401C23.1639 6.85305 22.9777 6.73234 22.8153 6.58302C22.6407 6.43701 22.4708 6.29577 22.3087 6.1577L21.9311 5.84029L20.5687 4.68017L19.7081 3.93902C19.4879 3.74858 19.3479 3.63114 19.2865 3.58353C19.1591 3.48196 19.0725 3.44387 19.0269 3.46767C19.0114 3.47825 18.9986 3.4924 18.9895 3.50896C18.9805 3.52552 18.9755 3.544 18.975 3.56289C18.9695 3.64452 18.9732 3.72651 18.986 3.8073L19.4863 8.5319C19.5132 8.70276 19.5132 8.87683 19.4863 9.04769C19.4545 9.1787 19.3739 9.29235 19.2613 9.36509C19.2021 9.40661 19.1407 9.44475 19.0773 9.47936C19.0285 9.50475 19.0127 9.53491 19.0301 9.56823C19.0474 9.60156 19.1009 9.6095 19.1795 9.56823L19.5068 9.3889L19.7663 9.24607L19.8985 9.1683C19.952 9.13973 20.0558 9.08577 20.2257 9.0096L20.5577 8.83185C20.6285 8.79376 20.6521 8.75567 20.6301 8.71441C20.608 8.67315 20.5734 8.68108 20.5121 8.71441L20.4192 8.76361C20.3556 8.80725 20.2784 8.82588 20.2021 8.81598C20.1737 8.80807 20.1473 8.79385 20.125 8.77436C20.1027 8.75487 20.085 8.73059 20.0731 8.7033C20.011 8.56854 19.9747 8.42316 19.9661 8.2748L19.8324 7.2099C19.8324 7.17022 19.8324 7.14324 19.8623 7.13055L21.2326 6.38623ZM17.397 9.65552C17.655 9.99409 17.8543 10.2586 17.9949 10.449C18.1245 10.6271 18.2423 10.8137 18.3473 11.0077C18.4365 11.1702 18.5032 11.3442 18.5455 11.525C18.5816 11.6961 18.5901 11.8718 18.5707 12.0456C18.5559 12.189 18.5209 12.3295 18.4668 12.463C18.4432 12.5233 18.4259 12.5677 18.4181 12.5947C18.4131 12.6045 18.4105 12.6154 18.4105 12.6265C18.4105 12.6375 18.4131 12.6484 18.4181 12.6582C18.4216 12.665 18.4267 12.6709 18.433 12.6753C18.4393 12.6796 18.4465 12.6824 18.4541 12.6833C18.4617 12.6843 18.4694 12.6834 18.4765 12.6806C18.4837 12.6779 18.4901 12.6735 18.4951 12.6677C18.5343 12.6372 18.5638 12.5958 18.5801 12.5487C18.6422 12.4325 18.6974 12.3128 18.7453 12.19C18.8688 11.8758 18.9446 11.5446 18.9703 11.2076C18.9915 10.9369 18.9622 10.6645 18.8837 10.4046C18.824 10.2153 18.7416 10.0341 18.6383 9.86501C18.5239 9.67551 18.3988 9.49271 18.2639 9.31748C18.1868 9.2175 18.0767 9.07943 17.9303 8.90326C17.784 8.7271 17.7038 8.61919 17.6472 8.54618L16.8605 7.5162L16.2061 6.6592C16.1117 6.537 16.033 6.42749 15.9701 6.32909C15.9128 6.25066 15.8725 6.16088 15.8521 6.06565C15.8491 6.02656 15.8546 5.98729 15.8682 5.95057C15.8817 5.91384 15.9031 5.88054 15.9307 5.85298C15.9761 5.80191 16.0256 5.75467 16.0786 5.71174C16.1447 5.65937 16.1652 5.6181 16.14 5.58478C16.1148 5.55145 16.0629 5.56415 15.9827 5.62445C15.9024 5.68476 15.7734 5.79268 15.5657 5.96725C15.4163 6.08787 15.3266 6.16087 15.2967 6.18309C15.2668 6.20531 15.1661 6.28307 15.0261 6.38623C14.7996 6.54493 14.6234 6.68142 14.4991 6.77823C14.4188 6.84171 14.3905 6.88932 14.4157 6.92265C14.4409 6.95597 14.4849 6.94963 14.5479 6.90043C14.618 6.8417 14.6946 6.79113 14.776 6.74966C14.852 6.70359 14.9425 6.68828 15.0293 6.70681C15.1182 6.74549 15.1961 6.80606 15.2558 6.88297C15.3329 6.96867 15.4131 7.07341 15.5138 7.20038C15.6145 7.32734 15.8285 7.60824 16.1683 8.05737L17.397 9.65552ZM13.5142 12.3059C13.8131 12.5937 14.0413 12.8153 14.1986 12.9708C14.3559 13.1264 14.4786 13.2565 14.5667 13.3612C14.6275 13.4347 14.6802 13.5145 14.7241 13.5993C14.7372 13.6273 14.743 13.6582 14.7408 13.6891C14.7385 13.7199 14.7285 13.7497 14.7115 13.7755C14.6668 13.849 14.614 13.9171 14.5541 13.9786C14.5038 14.0326 14.4912 14.0722 14.518 14.0992C14.5447 14.1262 14.5998 14.1135 14.6643 14.0453C14.7288 13.977 14.8562 13.8374 15.0387 13.6374C15.1598 13.5025 15.2322 13.42 15.259 13.393C15.3313 13.3152 15.4572 13.1898 15.6318 13.0153C15.8065 12.8407 15.989 12.6534 16.1227 12.5154C16.2564 12.3773 16.42 12.2091 16.6104 12.0059C16.6788 11.9407 16.7377 11.8659 16.785 11.7837C16.8023 11.7425 16.785 11.6822 16.7378 11.6044C16.7174 11.5711 16.6875 11.5298 16.6497 11.4806C16.612 11.4314 16.5616 11.3695 16.5034 11.2981C16.4452 11.2267 16.3949 11.1648 16.3461 11.1156C16.2973 11.0664 16.2643 11.0267 16.2375 11.0013C16.2144 10.9774 16.1879 10.9571 16.1589 10.941C16.1499 10.937 16.1398 10.9362 16.1304 10.9388C16.1209 10.9414 16.1126 10.9472 16.1069 10.9553C16.0818 10.9828 16.0896 11.0257 16.1305 11.0839C16.2064 11.1778 16.2635 11.2855 16.2989 11.4013C16.3224 11.4924 16.3185 11.5885 16.2879 11.6774C16.2558 11.7709 16.2067 11.8576 16.1431 11.9329C16.0755 12.0202 15.9858 12.1154 15.8961 12.217C15.7984 12.3253 15.6932 12.4266 15.5815 12.5201C15.514 12.5764 15.435 12.6171 15.3502 12.6391C15.2799 12.6525 15.2072 12.6413 15.1441 12.6074C15.0548 12.5568 14.9719 12.4955 14.8971 12.4249L14.1105 11.6758L13.7125 11.2933C13.6778 11.2616 13.6715 11.2346 13.6904 11.2156C13.7707 11.1283 13.8871 11.0045 14.0413 10.841C14.1231 10.7553 14.1986 10.6823 14.2568 10.6173C14.315 10.5522 14.3622 10.5141 14.3842 10.4966C14.4554 10.4296 14.5427 10.3825 14.6375 10.3602C14.7111 10.3468 14.7869 10.3603 14.8515 10.3983C14.9064 10.4334 14.9589 10.4721 15.0088 10.5141L15.0592 10.5522C15.0643 10.5591 15.0709 10.5647 15.0786 10.5686C15.0862 10.5724 15.0947 10.5744 15.1032 10.5744C15.1118 10.5744 15.1202 10.5724 15.1278 10.5686C15.1355 10.5647 15.1421 10.5591 15.1473 10.5522C15.1559 10.5444 15.1616 10.5339 15.1636 10.5224C15.1656 10.5109 15.1637 10.499 15.1583 10.4887C15.1404 10.4609 15.1186 10.4358 15.0938 10.4141C15.0639 10.3856 15.0135 10.3316 14.9364 10.2554L14.7681 10.0713C14.6663 9.96361 14.5712 9.84966 14.4833 9.73011C14.4707 9.7134 14.457 9.6975 14.4424 9.6825C14.4157 9.65711 14.3921 9.65552 14.3685 9.6825C14.3449 9.70948 14.348 9.74281 14.3528 9.81264C14.3546 9.81722 14.3546 9.82234 14.3528 9.82692C14.3384 9.94793 14.2828 10.0601 14.1954 10.1443C14.1482 10.2015 14.046 10.3157 13.8887 10.4855C13.7313 10.6554 13.574 10.8188 13.4356 10.9728C13.4135 10.9966 13.3836 10.9902 13.3475 10.9553L12.0684 9.7317C12.0354 9.69996 12.0291 9.67139 12.0511 9.64758C12.1361 9.55871 12.2525 9.4381 12.4035 9.28415L12.6395 9.04769C12.6764 9.00964 12.7152 8.97362 12.7559 8.93977C12.8399 8.85801 12.9402 8.79525 13.0501 8.75567C13.1196 8.73666 13.1935 8.74226 13.2594 8.77154C13.2996 8.78775 13.3377 8.80909 13.3726 8.83502C13.4069 8.8592 13.4395 8.88572 13.4702 8.91438C13.5174 8.95881 13.5551 8.96675 13.585 8.93659C13.6149 8.90644 13.607 8.8747 13.5772 8.83185L13.4938 8.73186C13.4544 8.68902 13.412 8.64299 13.3695 8.59379L13.2672 8.48746C13.1788 8.39203 13.0968 8.29076 13.0218 8.18434L12.9825 8.13673C12.9526 8.10816 12.9274 8.1034 12.9085 8.12403C12.8939 8.14274 12.8812 8.16296 12.8708 8.18434C12.867 8.19914 12.8606 8.21312 12.8519 8.2256C12.8267 8.26528 12.7685 8.3478 12.6757 8.47318C12.6143 8.53825 12.2163 8.96357 11.4769 9.74281L11.233 10.0031C11.0065 10.2253 10.8523 10.3776 10.772 10.4633C10.6918 10.549 10.6824 10.5887 10.7123 10.622C10.7421 10.6554 10.7846 10.6363 10.8397 10.5792C10.9001 10.5103 10.9676 10.448 11.0411 10.3935C11.1092 10.3363 11.1964 10.3073 11.2849 10.3126C11.3785 10.3365 11.4646 10.384 11.5351 10.4506C11.6263 10.5236 11.727 10.6093 11.8387 10.7204L12.6159 11.4647L13.5142 12.3059ZM7.92602 14.9927C7.90739 14.9823 7.89295 14.9657 7.88519 14.9457C7.87743 14.9257 7.87685 14.9036 7.88354 14.8832C7.93387 14.7699 7.99781 14.6633 8.07391 14.5658C8.14427 14.4679 8.23042 14.3826 8.32878 14.3135C8.44117 14.2347 8.56874 14.1806 8.70321 14.1548C8.85985 14.1249 9.02113 14.1309 9.17519 14.1722C9.37313 14.2243 9.5591 14.3149 9.72268 14.4388C9.91126 14.5625 10.072 14.7247 10.1947 14.915C10.284 15.058 10.3345 15.2222 10.341 15.3911C10.3419 15.4646 10.3297 15.5377 10.3048 15.6069C10.2622 15.6993 10.2094 15.7866 10.1475 15.8672C10.0927 15.9448 10.0334 16.019 9.96968 16.0894C9.91355 16.153 9.85137 16.2109 9.78404 16.2623C9.76142 16.2731 9.73611 16.2768 9.71141 16.2728C9.68671 16.2688 9.66377 16.2575 9.64559 16.2401L7.92602 14.9927ZM9.7274 17.3003C10.0641 17.5415 10.321 17.7282 10.4983 17.8605C10.6745 17.9938 10.8129 18.1049 10.9152 18.1954C10.9843 18.259 11.0461 18.3303 11.0993 18.408C11.1158 18.434 11.1257 18.4637 11.1279 18.4945C11.1301 18.5253 11.1246 18.5561 11.1119 18.5842C11.0788 18.6629 11.0377 18.7379 10.9891 18.808C10.9451 18.8683 10.9388 18.9095 10.9687 18.9317C10.9986 18.954 11.0537 18.9317 11.1071 18.8572C11.1795 18.754 11.2849 18.5969 11.4218 18.381C11.5068 18.2525 11.5602 18.1731 11.5791 18.1414C11.598 18.1097 11.6421 18.0557 11.7144 17.9621L12.0165 17.551C12.0778 17.4685 12.1345 17.3923 12.1895 17.313C12.2446 17.2336 12.2509 17.1844 12.2131 17.1543C12.1754 17.1241 12.1518 17.1447 12.1187 17.1908C12.0857 17.2368 12.0574 17.2717 12.0165 17.3193C11.9756 17.3669 11.9347 17.4114 11.8985 17.4542C11.8738 17.486 11.8419 17.5113 11.8055 17.5282C11.7691 17.545 11.7292 17.5528 11.6892 17.551C11.5976 17.5351 11.5096 17.5022 11.4297 17.4542C11.3117 17.386 11.1606 17.2955 10.975 17.1638C10.7893 17.0321 10.5313 16.8464 10.1884 16.6115L10.1097 16.5544C10.103 16.5508 10.0972 16.5458 10.0927 16.5396C10.0883 16.5334 10.0853 16.5262 10.0841 16.5187C10.0829 16.5111 10.0834 16.5034 10.0857 16.4961C10.0879 16.4888 10.0919 16.4821 10.0971 16.4766L10.459 15.9862C10.471 15.9662 10.4872 15.9492 10.5066 15.9363C10.5259 15.9234 10.5478 15.915 10.5707 15.9116C10.6068 15.9116 10.6556 15.9116 10.7154 15.9116H11.1402C11.3935 15.9116 11.598 15.9116 11.7538 15.9116C12.0433 15.9129 12.3326 15.8986 12.6206 15.8688C12.8011 15.8508 12.9772 15.802 13.1414 15.7243C13.2366 15.6789 13.3234 15.6171 13.3978 15.5418C13.5016 15.4324 13.5964 15.3146 13.681 15.1895L14.0633 14.6452C14.1152 14.5722 14.1215 14.523 14.0837 14.496C14.046 14.469 14.0224 14.4865 13.9909 14.5309C13.9515 14.5841 13.9078 14.634 13.8603 14.6801C13.7731 14.7638 13.674 14.8339 13.5661 14.888C13.3952 14.968 13.2133 15.0215 13.0265 15.0467C12.6846 15.0943 12.0254 15.1472 11.0489 15.2054L10.6588 15.226C10.6493 14.8674 10.5736 14.5138 10.4354 14.1833C10.3196 13.934 10.1418 13.7191 9.91934 13.5596C9.76869 13.4515 9.59526 13.3801 9.41266 13.3509C9.23005 13.3217 9.04323 13.3356 8.86683 13.3914C8.67111 13.4654 8.49234 13.5788 8.34136 13.7247C8.17032 13.891 8.01592 14.0738 7.8804 14.2706L7.6098 14.6531C7.46663 14.8721 7.37224 15.0165 7.32347 15.0864L7.1567 15.3101C7.04815 15.4561 6.96791 15.5656 6.91914 15.6275L6.76182 15.8545C6.70308 15.9391 6.69049 15.992 6.72406 16.0132C6.75867 16.0386 6.798 16.0132 6.84362 15.9529C6.89485 15.8769 6.95334 15.8062 7.01825 15.7418C7.07832 15.6754 7.16081 15.6341 7.24952 15.6259C7.34505 15.6374 7.43634 15.6722 7.5154 15.7275C7.61609 15.7878 7.72779 15.8624 7.85365 15.9513L8.72681 16.5782L9.7274 17.3003ZM9.29318 19.6538C8.9156 19.4729 8.66545 19.3497 8.54274 19.2841C8.45394 19.2444 8.37694 19.182 8.31934 19.1031C8.30028 19.068 8.28863 19.0293 8.28511 18.9894C8.28159 18.9496 8.28628 18.9094 8.29888 18.8714C8.31453 18.8096 8.33505 18.7491 8.36024 18.6905C8.38698 18.6366 8.38227 18.6001 8.34923 18.5842C8.31619 18.5683 8.26585 18.5969 8.22651 18.681C8.18718 18.7651 8.12582 18.8921 8.04559 19.0619C7.96535 19.2317 7.91186 19.3793 7.88826 19.4253C7.86466 19.4713 7.81275 19.584 7.7215 19.7618C7.58935 20.03 7.49653 20.222 7.44303 20.3347C7.40056 20.4236 7.40056 20.4791 7.44303 20.4934C7.48551 20.5077 7.50754 20.4934 7.53743 20.4236C7.57342 20.3389 7.61938 20.259 7.6743 20.1855C7.72151 20.107 7.7971 20.0501 7.88512 20.0268C7.98003 20.0194 8.07516 20.0381 8.16044 20.0808C8.2863 20.1379 8.53487 20.2537 8.90301 20.4315L9.49141 20.7156C9.54032 20.7319 9.58319 20.7627 9.61436 20.8041C9.64554 20.8455 9.66355 20.8954 9.66604 20.9473C9.66173 21.0358 9.64368 21.1231 9.61255 21.206C9.57951 21.2964 9.53546 21.4012 9.47882 21.5234C9.33618 21.8358 9.13041 22.1147 8.87469 22.3423C8.63603 22.5551 8.35413 22.7127 8.04874 22.8041C7.73556 22.897 7.40709 22.9256 7.08276 22.8882C6.73237 22.8486 6.39128 22.7488 6.0743 22.593C5.75283 22.4492 5.46134 22.245 5.21531 21.9915C5.02415 21.7874 4.88583 21.5388 4.81255 21.2679C4.74542 21.0222 4.73519 20.7643 4.78266 20.514C4.83389 20.2758 4.91311 20.0445 5.01865 19.8252C5.15324 19.5258 5.34518 19.2561 5.58345 19.0317C5.7534 18.8627 5.9565 18.7313 6.17971 18.6461C6.28068 18.6108 6.38809 18.5984 6.49436 18.6096C6.60127 18.6232 6.70664 18.6471 6.80901 18.681C6.86722 18.6984 6.90498 18.6905 6.92071 18.6572C6.93645 18.6239 6.9097 18.5667 6.8216 18.5239C6.55414 18.3953 6.34962 18.2922 6.21432 18.216C6.07902 18.1398 5.96732 18.0747 5.87764 18.0224C5.85797 18.0076 5.83689 17.9949 5.81472 17.9843C5.76909 17.9621 5.73133 17.9843 5.69829 18.0367C5.66526 18.089 5.61963 18.1731 5.56457 18.2604C5.5095 18.3477 5.44972 18.4286 5.39466 18.5064C5.3558 18.5541 5.31956 18.6039 5.2861 18.6556C5.24048 18.727 5.18069 18.8143 5.11147 18.9302C5.04225 19.046 4.97774 19.1508 4.91953 19.2571C4.86132 19.3634 4.80626 19.4697 4.76221 19.5745C4.61957 19.8715 4.50627 20.1819 4.42396 20.5013C4.3485 20.8208 4.32775 21.1509 4.3626 21.4773C4.40864 21.903 4.56131 22.3099 4.80626 22.6597C5.08197 23.0566 5.45859 23.3713 5.89653 23.5706C6.2714 23.7619 6.68473 23.8639 7.10478 23.869C7.47592 23.8743 7.84285 23.7894 8.1746 23.6214C8.51248 23.4414 8.81355 23.1986 9.06191 22.9057C9.33413 22.5858 9.56222 22.2302 9.73998 21.8487C9.87133 21.5709 9.97973 21.2827 10.0641 20.9869C10.1413 20.7297 10.18 20.4622 10.1789 20.1934C10.1803 20.1569 10.1692 20.1211 10.1475 20.0919C10.0986 20.0557 10.0459 20.0253 9.99013 20.0014L9.29318 19.6538Z" fill="black"/>
<path d="M59.8749 50.6613C59.458 50.5724 59.1386 50.5026 58.9199 50.4502C58.7013 50.3979 58.5266 50.3518 58.3976 50.309C58.1978 50.2423 58.0987 50.1503 58.0987 50.0376C58.097 49.9523 58.1049 49.8671 58.1223 49.7837C58.138 49.7107 58.1223 49.671 58.0908 49.6631C58.0594 49.6551 58.0138 49.6932 57.9949 49.7853C57.976 49.8773 57.9414 50.063 57.8942 50.3328C57.8611 50.5137 57.8407 50.6232 57.8328 50.6597C57.8187 50.7232 57.7951 50.8295 57.7589 50.9771C57.6849 51.2866 57.6267 51.5389 57.5858 51.731C57.5685 51.8182 57.5858 51.8659 57.6267 51.8754C57.6676 51.8849 57.6897 51.8516 57.7054 51.777C57.7179 51.7174 57.7337 51.6586 57.7526 51.6008C57.773 51.5389 57.7903 51.4818 57.8061 51.4326C57.8158 51.3947 57.8333 51.3594 57.8574 51.3287C57.8815 51.2981 57.9117 51.2729 57.9461 51.2549C58.0293 51.2276 58.1178 51.221 58.2041 51.2358C58.3378 51.2501 58.5188 51.2787 58.7359 51.3247C58.953 51.3707 59.2786 51.4358 59.7018 51.5262L60.9007 51.7817L61.95 52.0071C62.1074 52.0388 62.2301 52.0706 62.3418 52.1039C62.4357 52.1269 62.5241 52.1691 62.6014 52.2277C62.6287 52.2557 62.6497 52.2893 62.6627 52.3264C62.6758 52.3634 62.6806 52.4028 62.6769 52.442C62.675 52.5128 62.6677 52.5834 62.6549 52.653C62.6391 52.726 62.6548 52.7673 62.7005 52.7768C62.7461 52.7863 62.765 52.7403 62.7839 52.6435C62.8027 52.5467 62.8358 52.3801 62.8767 52.1388C62.9081 51.9658 62.9286 51.8548 62.9412 51.7976C62.9538 51.7405 62.9852 51.5977 63.0309 51.404C63.0906 51.158 63.1315 50.993 63.1489 50.9057C63.1662 50.8184 63.1662 50.7359 63.13 50.728C63.0938 50.72 63.0529 50.7502 63.0387 50.8232C63.0225 50.9073 62.9956 50.9889 62.9585 51.066C62.8977 51.2014 62.7545 51.2543 62.529 51.2247C62.4126 51.2088 62.2804 51.185 62.131 51.1533L61.0753 50.9184L59.8749 50.6613ZM60.8661 44.2132C60.4804 44.1625 60.0889 44.1813 59.7097 44.2687C59.4357 44.337 59.1821 44.4709 58.9703 44.6591C58.8539 44.7648 58.7537 44.8873 58.6729 45.0226C58.5965 45.1505 58.5347 45.2868 58.4889 45.4288C58.4479 45.5528 58.4158 45.6796 58.3929 45.8081C58.3725 45.9256 58.3567 46.0462 58.3457 46.1668C58.3199 46.4231 58.331 46.6819 58.3787 46.9349C58.4362 47.2004 58.5483 47.4507 58.7076 47.6697C58.8139 47.8185 58.9435 47.9488 59.0914 48.0554C59.2415 48.1617 59.4057 48.2461 59.5791 48.3061C59.755 48.368 59.9354 48.4158 60.1188 48.449C60.3013 48.4839 60.5058 48.5109 60.7323 48.5331L61.4749 48.6045L62.5431 48.7061C62.7005 48.7204 62.8295 48.7378 62.9428 48.7584C63.0392 48.7692 63.1321 48.8011 63.2149 48.8521C63.2453 48.8765 63.2699 48.9073 63.2871 48.9424C63.3042 48.9776 63.3134 49.0161 63.314 49.0552C63.3195 49.1234 63.3195 49.1918 63.314 49.2599C63.3062 49.3441 63.3235 49.3869 63.366 49.3917C63.4084 49.3964 63.432 49.3488 63.4415 49.2504C63.4509 49.152 63.4556 49.0822 63.4651 48.9664C63.4745 48.8505 63.4792 48.7489 63.484 48.6489C63.484 48.5315 63.4934 48.4633 63.495 48.4442V48.4236C63.5107 48.303 63.5264 48.1728 63.5453 48.0332C63.5642 47.8935 63.5768 47.7634 63.5878 47.6428C63.5988 47.5221 63.5878 47.4936 63.5406 47.4841C63.4934 47.4745 63.4745 47.5174 63.4667 47.5967C63.4667 47.638 63.4556 47.684 63.4462 47.7348C63.4368 47.7856 63.4289 47.8237 63.4226 47.8459C63.4039 47.9336 63.3527 48.0108 63.2794 48.0617C63.1909 48.1009 63.0942 48.1173 62.9978 48.1093C62.8814 48.1093 62.7461 48.0998 62.5935 48.084L61.5253 47.9824L60.6568 47.8999C60.3007 47.8718 59.9475 47.8134 59.6012 47.7253C59.3559 47.6625 59.136 47.5245 58.9719 47.3301C58.8571 47.1915 58.7744 47.0289 58.7296 46.854C58.6857 46.6837 58.6718 46.507 58.6887 46.3319C58.7025 46.1807 58.7353 46.0319 58.7862 45.8891C58.8446 45.7355 58.9366 45.5972 59.0552 45.4844C59.2338 45.3094 59.4572 45.1879 59.7003 45.1337C60.0675 45.0627 60.4436 45.052 60.8141 45.1019L61.7864 45.1956L62.8562 45.2971C63.0083 45.3119 63.142 45.3294 63.2574 45.3495C63.3538 45.3605 63.4466 45.3925 63.5296 45.4431C63.5599 45.4675 63.5846 45.4984 63.6017 45.5335C63.6189 45.5686 63.6281 45.6071 63.6287 45.6463C63.6342 45.7144 63.6342 45.7829 63.6287 45.851C63.6287 45.9256 63.6397 45.9653 63.6806 45.9684C63.7215 45.9716 63.7483 45.924 63.7577 45.8208C63.7671 45.7177 63.7766 45.5622 63.7923 45.3082C63.8033 45.1305 63.8128 45.0146 63.8175 44.9591C63.8222 44.9035 63.8364 44.7893 63.86 44.5877C63.8962 44.2862 63.9213 44.0703 63.9339 43.9386C63.9433 43.837 63.9339 43.7799 63.8867 43.7799C63.8395 43.7799 63.8206 43.8132 63.8128 43.8926C63.8071 43.9846 63.7913 44.0756 63.7656 44.164C63.7479 44.2513 63.6971 44.3282 63.624 44.3782C63.5357 44.4182 63.4387 44.4346 63.3424 44.4258C63.2259 44.4258 63.0922 44.4163 62.9396 44.402L61.8714 44.3005L60.8661 44.2132ZM58.8916 40.1266C58.885 39.8453 58.9386 39.566 59.049 39.3077C59.1615 39.0428 59.3288 38.8052 59.5398 38.6109C59.774 38.3959 60.0484 38.2303 60.3469 38.1237C61.0242 37.8978 61.7516 37.873 62.4425 38.0523C62.697 38.1221 62.9333 38.2472 63.1347 38.4189C63.3057 38.5685 63.4403 38.7559 63.528 38.9664C63.6144 39.1785 63.6598 39.4053 63.6617 39.6346C63.6657 39.8878 63.6175 40.1391 63.5201 40.3726C63.4145 40.6227 63.2586 40.848 63.0623 41.0343C62.8364 41.2432 62.5717 41.405 62.2836 41.5105C61.9385 41.6367 61.5745 41.7016 61.2075 41.7025C60.8071 41.7213 60.4065 41.6741 60.0212 41.5628C59.7537 41.4882 59.5081 41.3494 59.3054 41.1581C59.1582 41.0147 59.0461 40.8387 58.9782 40.6439C58.9247 40.4766 58.8955 40.3023 58.8916 40.1266ZM58.1192 42.0881C57.9492 42.4055 57.8045 42.6785 57.6975 42.9245C57.5912 43.1557 57.4987 43.3931 57.4206 43.6355C57.3481 43.8621 57.2955 44.0947 57.2633 44.3306C57.2328 44.578 57.2202 44.8273 57.2255 45.0765C57.2288 45.4908 57.2892 45.9026 57.4049 46.3001C57.5052 46.6415 57.6336 46.9738 57.7888 47.2936C57.8139 47.3492 57.8423 47.3777 57.8737 47.3761C57.8822 47.3776 57.891 47.3769 57.8992 47.3742C57.9074 47.3715 57.9148 47.3668 57.9209 47.3606C57.9269 47.3544 57.9313 47.3467 57.9338 47.3384C57.9363 47.33 57.9367 47.3212 57.9351 47.3127C57.9317 47.2903 57.9242 47.2688 57.9131 47.2492L57.8989 47.2079C57.8061 46.9868 57.7385 46.7557 57.6975 46.5191C57.6578 46.2953 57.6352 46.0688 57.6299 45.8415C57.6316 45.4337 57.6791 45.0275 57.7715 44.6306C57.9139 44.0414 58.1252 43.4714 58.4008 42.9324L59.0914 41.5041C59.3147 41.8173 59.5983 42.0818 59.9253 42.2818C60.1344 42.4107 60.3598 42.5106 60.5955 42.5785C60.8587 42.6547 61.132 42.6895 61.4057 42.6817C61.7786 42.6799 62.1475 42.6039 62.4912 42.4579C62.8085 42.3214 63.0917 42.1154 63.3203 41.8548C63.5515 41.5884 63.7255 41.2766 63.8316 40.9391C63.9485 40.5668 64.0017 40.1772 63.989 39.7869C63.99 39.3453 63.8972 38.9086 63.7168 38.5062C63.5628 38.1622 63.3349 37.857 63.0497 37.6127C62.543 37.1845 61.9015 36.9526 61.2405 36.9588C60.9066 36.9656 60.5761 37.0273 60.2619 37.1414C59.9371 37.2587 59.6376 37.4375 59.3793 37.6682C59.1044 37.9191 58.8893 38.2295 58.75 38.576C58.5877 38.9869 58.5127 39.4275 58.5298 39.8695C58.5354 40.0651 58.5569 40.2599 58.5943 40.4519C58.6248 40.6282 58.6711 40.8014 58.7327 40.9693L58.1192 42.0881ZM60.092 32.9468C60.092 32.9278 60.103 32.9167 60.1361 32.9103L61.9327 33.2547C61.9752 33.2547 61.9988 33.2674 62.002 33.2849C62.0051 33.3023 61.9878 33.3134 61.9532 33.3293H61.9453L60.361 34.2545C60.3343 34.2545 60.3186 34.2545 60.3138 34.2276L60.092 32.9468ZM59.9882 34.4116C59.9913 34.4268 59.9895 34.4426 59.983 34.4566C59.9765 34.4707 59.9656 34.4822 59.952 34.4894L58.5911 35.2956C58.5762 35.308 58.5583 35.3162 58.5392 35.3194C58.516 35.3258 58.4914 35.3234 58.4699 35.3125C58.4484 35.3017 58.4316 35.2832 58.4228 35.2607C58.4071 35.1972 58.3819 35.1687 58.3457 35.175C58.3095 35.1814 58.3095 35.2433 58.3205 35.3639V35.3924C58.3583 35.6654 58.3929 35.9003 58.4275 36.0971C58.4621 36.2939 58.4952 36.4954 58.5298 36.7033C58.5414 36.7896 58.5609 36.8746 58.588 36.9573C58.6037 36.9969 58.6257 37.0144 58.6525 37.0096C58.6792 37.0049 58.7028 36.97 58.6934 36.9096C58.6764 36.8122 58.6685 36.7134 58.6698 36.6145C58.6854 36.4979 58.7328 36.388 58.8067 36.297C58.952 36.1309 59.1237 35.9904 59.3148 35.8812C59.5052 35.7575 59.6924 35.64 59.8733 35.5289L60.295 35.2655L61.8116 34.3212L62.7776 33.7261C63.0246 33.5674 63.1803 33.4769 63.2495 33.4325C63.3848 33.342 63.4478 33.2737 63.4399 33.2214C63.4352 33.2028 63.426 33.1856 63.4131 33.1715C63.4002 33.1574 63.384 33.1467 63.366 33.1404C63.2903 33.1103 63.2117 33.0879 63.1315 33.0738L58.5251 32.0851C58.3559 32.0552 58.1925 31.999 58.0405 31.9184C57.9243 31.8478 57.8406 31.7337 57.8077 31.601C57.786 31.5319 57.7692 31.4614 57.7573 31.3899C57.7479 31.3344 57.7243 31.309 57.6881 31.3153C57.6519 31.3217 57.6267 31.3709 57.6409 31.4598C57.6613 31.5788 57.6834 31.7026 57.7085 31.8295C57.7337 31.9565 57.7494 32.0533 57.762 32.1231L57.7951 32.2739C57.8045 32.3342 57.8202 32.4548 57.8423 32.6358C57.869 32.7945 57.891 32.923 57.9052 33.0103C57.9194 33.0976 57.9492 33.1246 57.9949 33.1166C58.0405 33.1087 58.0436 33.0722 58.0311 33.0024L58.0138 32.8992C57.9935 32.8242 58.0002 32.7444 58.0326 32.6738C58.0491 32.6491 58.0707 32.6283 58.096 32.613C58.1213 32.5976 58.1496 32.5881 58.1789 32.585C58.3254 32.5676 58.4738 32.5783 58.6163 32.6167L59.6609 32.8199C59.7008 32.8273 59.7228 32.8447 59.727 32.8722L59.9882 34.4116ZM58.2372 25.9861C57.8407 26.1035 57.5355 26.1924 57.3231 26.2495C57.1107 26.3067 56.9361 26.3495 56.8039 26.3749C56.7114 26.39 56.6174 26.3943 56.5239 26.3876C56.4932 26.385 56.4638 26.3744 56.4384 26.3569C56.4131 26.3394 56.3926 26.3155 56.3791 26.2876C56.3382 26.2131 56.3055 26.1344 56.2816 26.0527C56.2611 25.9813 56.2328 25.9512 56.1966 25.9607C56.1605 25.9702 56.1432 26.0258 56.1699 26.1194C56.1966 26.213 56.2501 26.3908 56.3272 26.6495C56.3839 26.824 56.4169 26.9288 56.4263 26.9669C56.4578 27.07 56.5019 27.2414 56.5632 27.4827C56.634 27.7493 56.6938 27.9762 56.7441 28.1603C56.7945 28.3444 56.859 28.573 56.9376 28.8427C56.9587 28.9351 56.9932 29.0239 57.0399 29.1062C57.0667 29.1411 57.1264 29.1586 57.2177 29.1554C57.2704 29.153 57.3229 29.1477 57.375 29.1395C57.4379 29.1316 57.515 29.1189 57.6047 29.1046C57.6944 29.0903 57.773 29.076 57.8391 29.0618C57.9052 29.0475 57.9555 29.0348 57.9964 29.0237C58.0289 29.0167 58.0598 29.0037 58.0877 28.9856C58.0955 28.9797 58.1011 28.9713 58.1036 28.9618C58.1062 28.9524 58.1056 28.9423 58.1019 28.9332C58.0908 28.8983 58.0499 28.8824 57.9791 28.8888C57.8627 28.9083 57.7437 28.9056 57.6283 28.8808C57.5385 28.8548 57.4581 28.803 57.397 28.7317C57.3337 28.6565 57.2841 28.5705 57.2507 28.4777C57.2098 28.3746 57.1705 28.254 57.1312 28.1191C57.0875 27.9784 57.0543 27.8346 57.032 27.689C57.0166 27.6023 57.0215 27.5132 57.0462 27.4287C57.0706 27.3628 57.116 27.307 57.1752 27.27C57.2639 27.2192 57.3578 27.1782 57.4552 27.1478L58.492 26.8399L59.0191 26.6812C59.0647 26.6669 59.0899 26.6812 59.0977 26.7018C59.1308 26.8145 59.1795 26.978 59.2425 27.1954C59.2755 27.3097 59.3022 27.4081 59.3258 27.4954C59.3419 27.5518 59.355 27.609 59.3652 27.6668C59.3868 27.7628 59.3836 27.8628 59.3557 27.9572C59.3292 28.0271 59.2798 28.0859 59.2157 28.1238C59.1591 28.1518 59.1007 28.1761 59.0411 28.1968L58.9829 28.2222C58.9743 28.2231 58.966 28.2261 58.9588 28.2309C58.9515 28.2357 58.9456 28.2422 58.9414 28.2499C58.9372 28.2575 58.935 28.2661 58.9348 28.2748C58.9346 28.2835 58.9365 28.2922 58.9404 28.3C58.9422 28.3113 58.948 28.3217 58.9566 28.3292C58.9652 28.3368 58.9762 28.341 58.9876 28.3412C59.0207 28.3395 59.0535 28.3337 59.0851 28.3238C59.125 28.3111 59.1958 28.2936 59.2975 28.2714L59.5398 28.2175C59.6829 28.1827 59.8279 28.1568 59.974 28.1397L60.037 28.1286C60.0731 28.1191 60.0857 28.0968 60.0763 28.0667C60.0668 28.0365 60.0354 28.0175 59.974 27.9873C59.9689 27.9887 59.9635 27.9887 59.9583 27.9873C59.8617 27.9137 59.7928 27.809 59.7632 27.6906C59.738 27.6207 59.6908 27.4747 59.6248 27.2509C59.5587 27.0272 59.4942 26.8161 59.4344 26.6161C59.425 26.586 59.4454 26.5622 59.4942 26.5479L61.1839 26.0464C61.2295 26.0337 61.2562 26.0464 61.2657 26.0734C61.3003 26.1924 61.3443 26.3543 61.401 26.5638C61.4372 26.705 61.4639 26.8129 61.4844 26.8812C61.4986 26.9334 61.5101 26.9864 61.519 27.0399C61.5465 27.1548 61.5502 27.2742 61.53 27.3906C61.5094 27.4601 61.4676 27.5212 61.4104 27.5652C61.3754 27.591 61.338 27.6133 61.2987 27.6318C61.2607 27.6493 61.2219 27.6646 61.1823 27.6779C61.1194 27.6953 61.0942 27.7255 61.1052 27.7651C61.1162 27.8048 61.1477 27.8175 61.198 27.8112C61.2484 27.8048 61.2688 27.8001 61.327 27.789L61.5079 27.7493L61.6495 27.7144C61.7754 27.6849 61.9031 27.6642 62.0318 27.6525L62.0932 27.6414C62.1325 27.6302 62.1498 27.6096 62.142 27.5826C62.1327 27.5606 62.1217 27.5393 62.1089 27.5192C62.0974 27.5095 62.0888 27.4969 62.0838 27.4827C62.0617 27.4414 62.0193 27.3478 61.9595 27.2049L61.467 25.5195L61.3679 25.1767C61.2924 24.8593 61.2373 24.6561 61.2106 24.5419C61.1839 24.4276 61.1477 24.3991 61.1083 24.4117C61.069 24.4244 61.0596 24.4673 61.0816 24.5435C61.1094 24.6313 61.1284 24.7216 61.1382 24.8133C61.1523 24.9017 61.1332 24.9922 61.0847 25.0672C61.0169 25.1361 60.9331 25.1868 60.8409 25.2148C60.7323 25.2576 60.6049 25.3005 60.457 25.3433L59.4281 25.6496L58.2372 25.9861ZM57.1516 19.9236C57.847 19.5882 58.2665 19.3883 58.4102 19.3237C58.4349 19.3098 58.4632 19.3039 58.4913 19.3068C58.5195 19.3096 58.5461 19.3211 58.5675 19.3396C58.6126 19.3867 58.6508 19.4402 58.6808 19.4983C58.7327 19.584 58.7736 19.657 58.8067 19.73C58.8759 19.8776 58.9373 20.0252 58.9907 20.1744C59.0455 20.3346 59.0871 20.4992 59.115 20.6663C59.1483 20.8559 59.1594 21.0487 59.1481 21.2409C59.1344 21.4448 59.0958 21.6463 59.0332 21.8407C58.9391 22.1104 58.7937 22.3589 58.6053 22.5724C58.3685 22.8428 58.0773 23.0592 57.751 23.2072C57.4413 23.3618 57.1104 23.4688 56.7693 23.5246C56.4871 23.5717 56.1974 23.537 55.9339 23.4246C55.6885 23.3221 55.4683 23.1667 55.2889 22.9691C55.0869 22.7331 54.9194 22.4691 54.7917 22.1851C54.6965 22.0011 54.6331 21.802 54.6045 21.5963C54.5835 21.4735 54.5988 21.3471 54.6486 21.2329C54.6913 21.178 54.7449 21.1326 54.8059 21.0996C54.8908 21.0456 54.9868 20.9927 55.0938 20.9409C55.1551 20.906 55.2952 20.8346 55.517 20.7251L56.3571 20.3172L57.1516 19.9236ZM55.5705 19.7125C55.1976 19.8935 54.9097 20.0299 54.7099 20.1204C54.5101 20.2109 54.3433 20.2791 54.2159 20.3267C54.1276 20.3563 54.0363 20.376 53.9437 20.3854C53.9133 20.3869 53.883 20.3806 53.8556 20.3674C53.8281 20.3541 53.8043 20.3341 53.7864 20.3093C53.735 20.2422 53.6907 20.1698 53.6543 20.0934C53.6212 20.0252 53.5882 19.9998 53.5551 20.0157C53.5221 20.0315 53.5127 20.0887 53.5551 20.1744C53.5976 20.2601 53.681 20.4283 53.8053 20.6695C53.8871 20.8282 53.9374 20.9314 53.9532 20.9647C53.9972 21.0568 54.0743 21.2456 54.1829 21.5313C54.2521 21.7201 54.3119 21.8773 54.3622 22.0074C54.4126 22.1375 54.4645 22.247 54.5195 22.3581C54.6401 22.6146 54.7844 22.8591 54.9506 23.0882C55.0898 23.2776 55.2479 23.452 55.4226 23.6087C55.5601 23.7339 55.7104 23.8441 55.871 23.9372C55.9973 24.011 56.13 24.0731 56.2674 24.1229C56.5848 24.2283 56.9187 24.2734 57.2523 24.2562C57.6351 24.2378 58.0099 24.14 58.3536 23.969C58.6699 23.8233 58.954 23.615 59.189 23.3564C59.393 23.1315 59.5531 22.8698 59.6609 22.5851C59.754 22.3448 59.802 22.0892 59.8025 21.8312C59.803 21.5809 59.7729 21.3314 59.7129 21.0885C59.6571 20.8601 59.5845 20.6363 59.4958 20.4188C59.4108 20.2125 59.3033 19.9723 59.1732 19.6983C59.1135 19.5713 59.0086 19.3597 58.8586 19.0634C58.7768 18.9016 58.7217 18.7905 58.6934 18.7302C58.6698 18.6794 58.621 18.5715 58.5471 18.4048C58.4196 18.1128 58.33 17.9144 58.2796 17.8081C58.2293 17.7018 58.1947 17.678 58.1569 17.697C58.1192 17.716 58.1176 17.7589 58.1569 17.8319C58.1987 17.9132 58.2314 17.9989 58.2545 18.0874C58.2844 18.1725 58.2799 18.266 58.2419 18.3477C58.1863 18.4265 58.1122 18.4903 58.0263 18.5334C57.9256 18.5921 57.8061 18.6556 57.6676 18.7222L56.6765 19.1777L55.5705 19.7125ZM51.8482 13.7469C51.8356 13.7326 51.8482 13.7151 51.8686 13.6945L53.6134 13.147C53.6511 13.1279 53.6763 13.1263 53.6889 13.147C53.7015 13.1676 53.6889 13.1787 53.6653 13.2089L52.6977 14.7673C52.6757 14.7848 52.6568 14.7848 52.6427 14.7673L51.8482 13.7469ZM52.4444 15.0879C52.4534 15.1004 52.4582 15.1154 52.4582 15.1308C52.4582 15.1462 52.4534 15.1612 52.4444 15.1736L51.6248 16.5337C51.6168 16.551 51.6049 16.5662 51.5901 16.5781C51.5721 16.5941 51.5489 16.6029 51.5249 16.6029C51.5008 16.6029 51.4776 16.5941 51.4596 16.5781C51.4171 16.5289 51.3793 16.5162 51.351 16.5401C51.3227 16.5639 51.351 16.6162 51.4187 16.7178L51.436 16.74C51.5964 16.9633 51.7375 17.1537 51.8592 17.3114C51.9819 17.4701 52.1062 17.6288 52.2352 17.7954C52.2859 17.8655 52.3428 17.9308 52.4051 17.9906C52.4381 18.0192 52.4649 18.0239 52.4869 18.0065C52.5089 17.989 52.5121 17.9478 52.4759 17.9001C52.4153 17.8221 52.3626 17.7381 52.3186 17.6494C52.2758 17.5383 52.2649 17.4173 52.2871 17.3002C52.3368 17.0844 52.4218 16.8784 52.5388 16.6908C52.6505 16.4909 52.7591 16.2988 52.8661 16.1131L53.1131 15.6815L54.0067 14.1246L54.5856 13.147C54.7335 12.8946 54.8232 12.7343 54.8578 12.6709C54.9349 12.5264 54.9585 12.4344 54.927 12.3931C54.9141 12.3793 54.898 12.3689 54.8802 12.3628C54.8624 12.3567 54.8433 12.3551 54.8248 12.3582C54.7438 12.3673 54.6642 12.3854 54.5872 12.4122L50.0641 13.7389C49.9018 13.7939 49.7319 13.8228 49.5607 13.8246C49.4256 13.8179 49.2986 13.7581 49.2067 13.658C49.1548 13.6086 49.1064 13.5555 49.0619 13.4993C49.0273 13.4564 48.9959 13.4453 48.9675 13.4691C48.9392 13.4929 48.9392 13.5469 48.9927 13.6167C49.0682 13.7135 49.15 13.8104 49.2255 13.9103L49.4112 14.1436C49.4678 14.2119 49.5024 14.25 49.5103 14.2611C49.5481 14.3087 49.6189 14.4087 49.7227 14.5578L49.954 14.8562C50.0027 14.9197 50.0452 14.9371 50.0814 14.907C50.1176 14.8768 50.105 14.8451 50.0609 14.7896L49.9964 14.707C49.9441 14.6508 49.9129 14.5778 49.9083 14.5007C49.9111 14.4708 49.9204 14.4419 49.9356 14.4161C49.9509 14.3903 49.9717 14.3682 49.9964 14.3515C50.1165 14.2662 50.2516 14.2048 50.3945 14.1706L51.4108 13.8532C51.4246 13.8467 51.4401 13.8447 51.455 13.8475C51.47 13.8504 51.4837 13.8579 51.4942 13.8691L52.4444 15.0879ZM48.8259 10.6347C48.5412 10.9362 48.3194 11.1648 48.1652 11.3235C48.011 11.4822 47.8788 11.6044 47.7766 11.6932C47.7072 11.7546 47.6293 11.8054 47.5453 11.844C47.5168 11.8574 47.4854 11.8633 47.454 11.861C47.4226 11.8588 47.3923 11.8486 47.366 11.8313C47.2931 11.7863 47.2255 11.733 47.1646 11.6726C47.1111 11.6202 47.0718 11.6091 47.0466 11.6361C47.0214 11.6631 47.0309 11.7186 47.0985 11.7837C47.1662 11.8488 47.3046 11.9757 47.506 12.1567C47.6413 12.2789 47.7215 12.3535 47.7483 12.3788L47.9858 12.6169C48.2071 12.8444 48.387 13.0242 48.5255 13.1565C48.5884 13.2168 48.6372 13.2311 48.6686 13.1978C48.7001 13.1644 48.6796 13.1311 48.6261 13.0787C48.5826 13.0369 48.5416 12.9924 48.5034 12.9454C48.4609 12.8946 48.4232 12.8502 48.3886 12.8121C48.3611 12.7829 48.341 12.7475 48.3298 12.7089C48.3185 12.6702 48.3166 12.6295 48.3241 12.5899C48.3524 12.5045 48.395 12.4245 48.4499 12.3535C48.5365 12.2424 48.6545 12.1043 48.8023 11.9408C48.9502 11.7774 49.1689 11.5441 49.4537 11.2425L51.425 9.15717L52.0448 9.79198C52.2061 9.93156 52.3314 10.1086 52.4098 10.3078C52.4321 10.3634 52.4401 10.4238 52.4333 10.4834C52.4264 10.543 52.4048 10.6 52.3705 10.649L52.3233 10.7093C52.2619 10.7807 52.2493 10.8331 52.2824 10.868C52.3154 10.9029 52.3469 10.8775 52.4051 10.8299C52.4633 10.7823 52.5624 10.6712 52.7197 10.5125L52.9746 10.2538C53.0423 10.1824 53.0611 10.1348 53.0344 10.1078C53.0156 10.0934 52.9956 10.0807 52.9746 10.0697C52.9085 10.0253 52.8393 9.97608 52.7669 9.92371C52.6746 9.85208 52.5864 9.77525 52.5026 9.69359L50.5077 7.77327C50.4244 7.69234 50.3394 7.60505 50.2529 7.513C50.1664 7.42095 50.0956 7.33684 50.0279 7.26225C49.9767 7.2035 49.9367 7.1357 49.9099 7.06228C49.8995 7.03725 49.8857 7.01375 49.869 6.99245C49.8423 6.96706 49.7919 6.97976 49.7117 7.03054C49.6811 7.05528 49.6491 7.07807 49.6157 7.09878L49.3892 7.25749C49.3011 7.31938 49.2318 7.37493 49.1673 7.41619C49.1274 7.44521 49.0896 7.47703 49.0541 7.51141C49.0021 7.56537 48.9911 7.60664 49.0226 7.6352C49.0541 7.66377 49.0871 7.65901 49.1359 7.6352C49.215 7.5902 49.3004 7.55756 49.3892 7.53839C49.4792 7.52095 49.5724 7.53672 49.6519 7.58283C49.782 7.66421 49.9042 7.75773 50.0169 7.86215L50.7878 8.56362L48.8259 10.6347ZM44.0118 9.43014C44.1738 9.54284 44.3479 9.63655 44.531 9.70946C44.7081 9.77798 44.8952 9.81711 45.0847 9.82531C45.3375 9.83634 45.5884 9.77704 45.81 9.65391C46.0099 9.54036 46.1815 9.38244 46.3119 9.19208C46.4931 8.93088 46.5948 8.62201 46.6045 8.30334C46.5946 7.88003 46.5176 7.46104 46.3764 7.06228L46.2977 6.82899C46.2044 6.57809 46.1461 6.31529 46.1247 6.04817C46.1178 5.87914 46.1646 5.71232 46.2584 5.57206C46.3108 5.48866 46.3811 5.41824 46.4642 5.36603C46.5473 5.31383 46.6409 5.28118 46.7382 5.27052C46.9563 5.2512 47.1736 5.3152 47.3471 5.44986C47.4869 5.53657 47.6018 5.65855 47.6806 5.80376C47.7351 5.91788 47.7687 6.04101 47.7797 6.1672C47.7943 6.33691 47.7552 6.50692 47.668 6.65283C47.6208 6.72266 47.6161 6.77027 47.6539 6.79725C47.6916 6.82423 47.7577 6.78296 47.8364 6.66711C47.915 6.55126 47.9937 6.43223 48.0708 6.33383L48.2643 6.07673C48.2989 6.0323 48.3225 6.00373 48.3319 5.98786C48.3414 5.97199 48.3445 5.91168 48.2989 5.86249C48.2139 5.76409 48.118 5.66252 48.011 5.55936C47.883 5.44374 47.7468 5.33765 47.6035 5.24195C47.2688 4.98677 46.855 4.86018 46.4362 4.88487C46.2548 4.89711 46.0787 4.95164 45.9217 5.04417C45.7647 5.1367 45.6312 5.2647 45.5315 5.41811C45.3673 5.66025 45.2736 5.94392 45.2609 6.23703C45.2567 6.62589 45.3196 7.01253 45.4466 7.37969L45.5677 7.7701C45.6629 8.01826 45.7068 8.28343 45.6967 8.54933C45.6773 8.74255 45.6097 8.92765 45.5001 9.08734C45.4402 9.17311 45.3635 9.24554 45.2748 9.30014C45.186 9.35475 45.087 9.39035 44.9841 9.40475C44.8603 9.42231 44.7343 9.41465 44.6135 9.38221C44.4927 9.34977 44.3795 9.29321 44.2808 9.21589C44.0989 9.09484 43.9562 8.9227 43.8702 8.72073C43.7867 8.50996 43.7828 8.27561 43.8592 8.06212C43.8797 7.99784 43.9039 7.93478 43.9315 7.87326C43.9531 7.82347 43.9789 7.77568 44.0086 7.73042C44.0261 7.70605 44.0389 7.6786 44.0464 7.64949C44.0479 7.6382 44.0459 7.62673 44.0409 7.61655C44.0358 7.60637 44.0279 7.59795 44.0181 7.59235C43.9787 7.56537 43.9221 7.60029 43.8466 7.69551L43.834 7.71297C43.7443 7.82723 43.6531 7.94626 43.5603 8.07164C43.4674 8.19701 43.3793 8.31763 43.3007 8.43348C43.2674 8.47596 43.2438 8.52525 43.2314 8.5779C43.2317 8.62448 43.2472 8.66968 43.2755 8.70645C43.3615 8.84598 43.4639 8.97441 43.5807 9.08892C43.7149 9.21431 43.8591 9.32843 44.0118 9.43014Z" fill="black"/>
<path d="M52.995 64.6272L53.3097 65.3509C53.7534 66.3581 54.1168 67.1786 54.4 67.8124C54.6831 68.4462 54.9747 69.081 55.2747 69.7168L55.2857 69.7391C55.3012 69.7766 55.3255 69.8098 55.3565 69.8359C55.388 69.8565 55.4242 69.8359 55.4666 69.766L56.6198 67.9648C56.7771 67.7219 56.9046 67.522 57.0053 67.368C57.106 67.2141 57.2161 67.0506 57.3325 66.8919C57.3728 66.8365 57.4192 66.7859 57.471 66.7412C57.4907 66.7234 57.5086 66.7037 57.5244 66.6824C57.5465 66.6475 57.5244 66.5999 57.4584 66.5412C57.2491 66.3476 57.1123 66.2238 57.0493 66.1682L56.8511 65.9952C56.8009 65.9517 56.7484 65.9109 56.6938 65.873C56.6277 65.8302 56.5836 65.8238 56.5648 65.8556C56.5459 65.8873 56.5648 65.9381 56.6245 65.9952C56.7031 66.0708 56.7666 66.1607 56.8118 66.2603C56.8648 66.369 56.8871 66.4904 56.8763 66.611C56.8602 66.756 56.817 66.8966 56.7488 67.0252C56.6614 67.2031 56.5632 67.3754 56.4546 67.541L55.7183 68.6932C55.4142 68.033 54.9821 67.0744 54.422 65.8175C53.9678 64.7976 53.649 64.0882 53.4654 63.6893C53.4324 63.6115 53.4088 63.5623 53.3962 63.5401C53.3847 63.5183 53.3679 63.4997 53.3475 63.4861C53.3086 63.4608 53.2677 63.4814 53.2247 63.548C52.9646 63.9543 52.5886 64.5294 52.0967 65.2731C51.6856 65.8963 51.3756 66.3724 51.1669 66.7015C51.1385 66.7442 51.1267 66.7959 51.1337 66.8468C51.1406 66.8977 51.1659 66.9443 51.2047 66.9776C51.2802 67.0586 51.384 67.1633 51.5193 67.295C51.6198 67.3939 51.7282 67.4841 51.8434 67.5648C51.892 67.5989 51.9449 67.6261 52.0007 67.6458C52.0128 67.6511 52.0263 67.6517 52.0388 67.6476C52.0512 67.6436 52.0618 67.635 52.0684 67.6235C52.0873 67.5966 52.0684 67.5569 52.0133 67.5045C51.9256 67.4215 51.8537 67.3231 51.8009 67.2141C51.7359 67.0744 51.7198 66.9166 51.7553 66.7665C51.8167 66.5192 51.9234 66.2855 52.07 66.0778L52.995 64.6272ZM56.8637 61.0072C56.8637 60.9913 56.8904 60.9897 56.9187 61.0072L58.1884 62.3355C58.223 62.3625 58.2356 62.3832 58.2277 62.4006C58.2198 62.4181 58.1994 62.4165 58.1616 62.4006L56.3398 62.2229C56.3146 62.2102 56.3067 62.1943 56.3162 62.1721L56.8637 61.0072ZM55.9386 62.1435C55.9325 62.1577 55.922 62.1694 55.9086 62.1769C55.8952 62.1843 55.8798 62.1871 55.8647 62.1848L54.2914 62.0499C54.2719 62.0511 54.2524 62.0473 54.2348 62.0388C54.2123 62.0308 54.1936 62.0147 54.1823 61.9936C54.1709 61.9724 54.1678 61.9478 54.1734 61.9245C54.197 61.8626 54.1923 61.8245 54.1593 61.8071C54.1262 61.7896 54.0916 61.842 54.0302 61.9483L54.0192 61.9737C53.8918 62.2197 53.7864 62.4308 53.7046 62.6085L53.4419 63.1624C53.4016 63.2396 53.3685 63.3203 53.3427 63.4036C53.3333 63.4449 53.3412 63.4719 53.3663 63.4846C53.3994 63.5004 53.4293 63.4846 53.456 63.4258C53.5001 63.3362 53.5528 63.2512 53.6133 63.1719C53.6928 63.0838 53.7953 63.02 53.9091 62.9878C54.1228 62.9369 54.3435 62.9224 54.562 62.945C54.7886 62.9545 55.0088 62.9672 55.2212 62.9815L55.7152 63.0132L57.4946 63.1275L58.6226 63.2036C58.9121 63.2243 59.0946 63.2354 59.1716 63.2354C59.329 63.2354 59.4265 63.2195 59.4485 63.1735C59.4553 63.1557 59.4575 63.1366 59.455 63.1177C59.4525 63.0989 59.4454 63.081 59.4344 63.0656C59.3889 62.9965 59.3362 62.9327 59.2771 62.8751L56.0849 59.3837C55.9645 59.2606 55.8632 59.1199 55.7844 58.9663C55.7307 58.8407 55.7273 58.6991 55.775 58.5711C55.7943 58.5053 55.8174 58.4406 55.8442 58.3775C55.8673 58.3267 55.8626 58.2934 55.83 58.2775C55.7876 58.2569 55.7482 58.287 55.7105 58.3664C55.6586 58.4775 55.6051 58.5901 55.5532 58.7076C55.5012 58.825 55.4588 58.9155 55.4289 58.979L55.3691 59.1218C55.3423 59.1758 55.2857 59.2805 55.1992 59.4392C55.1126 59.5979 55.0749 59.7027 55.0418 59.782C55.0088 59.8614 55.012 59.8994 55.0544 59.9201C55.0969 59.9407 55.1189 59.9121 55.1488 59.8487L55.1945 59.755C55.2203 59.6821 55.2711 59.6208 55.3376 59.582C55.3654 59.5714 55.3951 59.567 55.4248 59.5692C55.4544 59.5714 55.4832 59.5801 55.5091 59.5947C55.638 59.6659 55.7527 59.7606 55.8474 59.8741L56.5836 60.6501C56.612 60.6787 56.6198 60.7057 56.6072 60.7311L55.9386 62.1435ZM61.6181 55.5065C61.6388 55.5099 61.6577 55.5204 61.6715 55.5364C61.6853 55.5523 61.6931 55.5727 61.6936 55.5938C61.6838 55.7184 61.6579 55.8411 61.6165 55.9588C61.5808 56.0723 61.5277 56.1794 61.4592 56.2762C61.3779 56.3879 61.2752 56.4818 61.1571 56.5524C61.0167 56.6346 60.8596 56.6834 60.6977 56.6952C60.2677 56.7139 59.8444 56.5828 59.4989 56.3239C59.369 56.22 59.2691 56.083 59.2094 55.9271C59.1835 55.8582 59.1713 55.7849 59.1732 55.7113C59.183 55.6104 59.2036 55.5109 59.2346 55.4145C59.2617 55.3234 59.2937 55.2338 59.3305 55.1463C59.3631 55.068 59.4032 54.993 59.4501 54.9225C59.4679 54.9047 59.4907 54.8927 59.5154 54.8881C59.5401 54.8836 59.5656 54.8867 59.5886 54.8971L61.6181 55.5065ZM59.1701 53.9195C58.7736 53.8021 58.4705 53.7095 58.2607 53.6418C58.0499 53.5751 57.8831 53.5164 57.7573 53.464C57.6716 53.4262 57.5903 53.3788 57.515 53.3228C57.4914 53.3041 57.4728 53.2798 57.4607 53.2522C57.4486 53.2245 57.4435 53.1942 57.4458 53.1641C57.4516 53.0791 57.4664 52.9951 57.4898 52.9133C57.5119 52.8419 57.504 52.8006 57.4678 52.7895C57.4316 52.7784 57.3891 52.8149 57.3624 52.9054C57.3262 53.026 57.279 53.2101 57.2161 53.4545C57.1783 53.6053 57.1532 53.6973 57.1421 53.7338C57.1311 53.7703 57.1107 53.8354 57.0729 53.9465C57.0021 54.175 56.9502 54.3385 56.9156 54.4353C56.881 54.5321 56.8558 54.6289 56.8291 54.7178C56.8023 54.8067 56.8118 54.859 56.8574 54.8765C56.903 54.8939 56.9187 54.8654 56.9345 54.8114C56.9498 54.7575 56.9682 54.7045 56.9895 54.6527C57.0147 54.594 57.0367 54.5384 57.0572 54.4861C57.0704 54.4481 57.0925 54.4139 57.1215 54.3863C57.1505 54.3587 57.1856 54.3385 57.224 54.3274C57.3154 54.3094 57.4094 54.3094 57.5008 54.3274C57.6346 54.3512 57.8076 54.394 58.0232 54.4527C58.2387 54.5115 58.5439 54.5987 58.9404 54.7162L59.0348 54.7448C59.0422 54.7461 59.0493 54.7491 59.0555 54.7535C59.0616 54.758 59.0667 54.7638 59.0704 54.7705C59.074 54.7772 59.0761 54.7846 59.0764 54.7923C59.0768 54.7999 59.0755 54.8075 59.0725 54.8146L58.8885 55.397C58.8834 55.4202 58.8733 55.4418 58.8589 55.4605C58.8445 55.4792 58.8261 55.4944 58.8051 55.5049C58.772 55.5192 58.728 55.5367 58.6713 55.5557L58.2702 55.697C58.0295 55.7763 57.836 55.8446 57.6896 55.8985C57.4151 55.9925 57.1457 56.1011 56.8826 56.2239C56.7182 56.3002 56.5677 56.4037 56.4373 56.5302C56.3636 56.6057 56.302 56.6925 56.2548 56.7873C56.1907 56.9249 56.1381 57.0677 56.0975 57.2142L55.9119 57.849C55.8867 57.9326 55.8961 57.9818 55.9402 57.9966C55.9764 58.0061 56.0015 57.9855 56.0173 57.9315C56.0371 57.8681 56.0624 57.8065 56.0928 57.7474C56.1497 57.6406 56.2212 57.5423 56.3052 57.4554C56.4413 57.3258 56.5969 57.2187 56.7661 57.138C57.0734 56.9793 57.6802 56.7148 58.5864 56.3445L58.9482 56.1953C59.0732 56.5311 59.2588 56.8405 59.4957 57.1079C59.6858 57.3062 59.9239 57.4512 60.1864 57.5284C60.3796 57.5896 60.5857 57.5968 60.7827 57.5491C60.9468 57.5146 61.1015 57.4441 61.2358 57.3427C61.3964 57.2076 61.5285 57.0414 61.6243 56.8539C61.7326 56.641 61.8196 56.4177 61.8839 56.1874L62.0161 55.7351C62.0806 55.4811 62.1246 55.3129 62.1482 55.232C62.1545 55.2098 62.1828 55.1209 62.2332 54.9654C62.2883 54.7908 62.3276 54.6622 62.3528 54.5797C62.3779 54.4972 62.4031 54.4083 62.4298 54.3131C62.4566 54.2179 62.4535 54.1544 62.4125 54.1464C62.3716 54.1385 62.3418 54.1671 62.3197 54.2433C62.2974 54.3323 62.2652 54.4185 62.2238 54.5004C62.1885 54.5828 62.124 54.6491 62.0428 54.686C61.9487 54.707 61.8509 54.7042 61.7581 54.6781C61.6432 54.6543 61.5126 54.6194 61.3663 54.5765L60.3374 54.2718L59.1701 53.9195Z" fill="black"/>
</g>
<defs>
<clipPath id="clip0_22_778">
<rect width="64" height="85" fill="white"/>
</clipPath>
</defs>
</svg>
