<svg width="37" height="64" viewBox="0 0 37 64" fill="none" xmlns="http://www.w3.org/2000/svg">
<g clip-path="url(#clip0_341_9)">
<path fill-rule="evenodd" clip-rule="evenodd" d="M18.6889 10.0015C16.7672 9.73537 5.54452 18.46 18.6889 27.366C31.8334 18.46 20.6107 9.73537 18.6889 10.0015Z" fill="#AA1B20"/>
<path d="M18.2852 15.1181C18.2693 15.0711 18.1697 14.7968 17.887 14.7162C17.6707 14.6543 17.5433 14.4258 17.6043 14.2067V14.2H17.6057C17.6548 14.0333 17.7384 13.5211 17.8127 12.6311L17.9574 4.92287V4.92018C17.96 4.80457 17.9627 4.654 17.964 4.49537C17.9653 4.31927 17.9667 4.13107 17.9667 3.95899H17.9176C17.9176 3.95899 16.674 3.96706 16.39 4.25609C16.2307 4.4174 15.9719 4.4174 15.8113 4.25609C15.7662 4.21038 15.7343 4.15661 15.7144 4.10015C15.6653 3.98588 15.6202 3.88775 15.5645 3.82053L15.5512 3.8044C15.5021 3.75063 15.4291 3.70492 15.3163 3.66325C15.1053 3.58662 14.9951 3.35002 15.0707 3.13628C15.1132 3.01529 15.2061 2.92791 15.3163 2.88758C15.441 2.84187 15.5154 2.79079 15.5658 2.73029C15.6255 2.6577 15.6733 2.55016 15.7264 2.42513C15.814 2.21542 16.0542 2.11729 16.2612 2.20736C16.3103 2.22887 16.3541 2.25844 16.39 2.29474C16.674 2.58242 17.9136 2.59048 17.9176 2.59048H17.9547L17.9507 2.42379C17.9507 2.40363 17.9521 2.38481 17.9547 2.36598C17.956 2.28129 17.9454 1.89144 17.615 1.41152C17.4862 1.22332 17.5327 0.966557 17.7171 0.836158C17.7636 0.803895 17.814 0.782386 17.8658 0.771631C17.9441 0.750122 18.0184 0.719203 18.0821 0.666775C18.1578 0.604937 18.2321 0.506802 18.3011 0.352206C18.394 0.145182 18.6369 0.0537686 18.8413 0.14787C18.9342 0.190888 19.0032 0.264826 19.043 0.352206C19.1505 0.590149 19.2726 0.651987 19.4412 0.736679L19.465 0.748778L19.5845 0.809272C19.7836 0.915472 19.8606 1.16551 19.7557 1.36716C19.7477 1.38195 19.7398 1.39674 19.7292 1.41018C19.3562 1.95463 19.3907 2.38077 19.3907 2.38212C19.3907 2.39556 19.3921 2.409 19.3921 2.42245L19.3881 2.58914H19.4544C19.4544 2.58914 20.698 2.58107 20.982 2.29205C21.1413 2.13073 21.4001 2.13073 21.5607 2.29205C21.6058 2.33775 21.639 2.39153 21.6576 2.44933C21.7067 2.56629 21.7531 2.66308 21.8049 2.72761C21.8553 2.7881 21.9296 2.84053 22.0531 2.88623C22.2641 2.96286 22.3742 3.19946 22.2986 3.4132C22.2561 3.53419 22.1632 3.62157 22.0531 3.6619C21.9296 3.70626 21.8553 3.75869 21.8049 3.81919L21.7889 3.83666C21.7385 3.90522 21.6934 4.00605 21.6443 4.123C21.5567 4.33271 21.3165 4.43085 21.1094 4.34078C21.0603 4.31927 21.0165 4.2897 20.9807 4.2534C20.6953 3.96572 19.4558 3.95765 19.4531 3.95765H19.3761C19.3761 4.12838 19.3761 4.31658 19.3788 4.49134L19.4093 5.85313L19.4292 6.39086V6.39758C19.4531 6.94337 19.4823 12.0329 19.5155 12.4483C19.5938 13.4525 19.6854 14.0212 19.7384 14.2C19.7955 14.3949 19.7053 14.5979 19.5314 14.6866C19.5102 14.6974 19.4876 14.7068 19.4637 14.7135L19.4438 14.7189C19.1452 14.813 19.0576 15.1235 19.0563 15.1235C18.9859 15.3399 18.755 15.4569 18.5427 15.3856C18.4126 15.3426 18.3197 15.2391 18.2825 15.1168" fill="#D1AA66"/>
<path fill-rule="evenodd" clip-rule="evenodd" d="M18.6889 32.8605C16.7672 33.1119 5.54452 24.8632 18.6889 16.4424C31.8334 24.8618 20.6107 33.1105 18.6889 32.8605Z" fill="#FF0000"/>
<path fill-rule="evenodd" clip-rule="evenodd" d="M12.8929 9.62416C11.6255 9.74784 7.6532 20.9701 18.6887 27.3677C23.7798 15.566 13.9839 8.95738 12.8929 9.62416Z" fill="#FF0000"/>
<path fill-rule="evenodd" clip-rule="evenodd" d="M24.49 9.62416C25.7575 9.74784 29.7298 20.9701 18.6942 27.3677C13.6032 15.566 23.3991 8.95738 24.49 9.62416Z" fill="#F26A6F"/>
<path fill-rule="evenodd" clip-rule="evenodd" d="M18.9756 32.8669C18.9756 32.8669 16.8521 13.693 29.8718 12.7573C27.8399 17.2473 28.0244 20.7076 27.9328 24.6357C27.8399 28.5637 25.9938 33.0537 18.9756 32.8669Z" fill="#AA1B20"/>
<path fill-rule="evenodd" clip-rule="evenodd" d="M18.402 32.8669C18.402 32.8669 20.5255 13.693 7.50586 12.7573C9.53778 17.2473 9.3533 20.7076 9.44487 24.6357C9.53778 28.5637 11.3839 33.0537 18.402 32.8669Z" fill="#AA1B20"/>
<path fill-rule="evenodd" clip-rule="evenodd" d="M11.9443 59.3325C11.9443 59.3325 18.5139 50.7867 18.2166 43.4467C17.9193 36.1068 6.68733 28.5733 5.37341 20.6055C4.0595 12.6378 7.16378 8.7124 7.16378 8.7124C7.16378 8.7124 -5.05426 20.7265 2.06608 36.8784C5.97065 44.9376 13.5754 52.986 11.9443 59.3311" fill="#BBBDBF"/>
<path fill-rule="evenodd" clip-rule="evenodd" d="M16.88 42.2585C16.88 42.2585 13.9669 36.4322 16.0598 31.8562C17.61 28.2091 20.4555 28.939 20.4555 28.939C20.4555 28.939 18.8629 30.8695 19.7189 33.4815C20.5749 36.0948 25.4364 40.6682 23.1935 46.1086C20.9518 51.5477 19.3327 47.7513 19.3327 47.7513L16.88 42.2571V42.2585Z" fill="#BBBDBF"/>
<path fill-rule="evenodd" clip-rule="evenodd" d="M18.9915 64C18.9915 64 13.0563 53.8128 14.3915 45.9042C15.7266 37.9956 28.9347 31.4273 31.4577 22.9823C33.9807 14.5374 31.1604 9.8457 31.1604 9.8457C31.1604 9.8457 42.7348 24.5901 32.7929 41.0781C27.4509 49.2542 18.1009 56.8953 18.9915 64Z" fill="#D1AA66"/>
<path fill-rule="evenodd" clip-rule="evenodd" d="M31.1936 9.89014C31.2533 9.96945 31.3953 10.159 31.5917 10.4453C33.3476 13.0815 39.3345 24.3079 27.6858 41.2059C22.2776 49.0325 19.2171 55.0819 19.3949 60.2091C19.0087 61.4539 18.8468 62.6826 18.9822 63.8952C16.8919 59.6095 16.8693 52.8033 24.7103 42.0434C39.5442 21.6865 31.7603 10.643 31.1936 9.89014Z" fill="#E1C385"/>
</g>
<defs>
<clipPath id="clip0_341_9">
<rect width="37" height="64" fill="white"/>
</clipPath>
</defs>
</svg>
